<svg xmlns="http://www.w3.org/2000/svg" xmlns:xlink="http://www.w3.org/1999/xlink" width="1584" zoomAndPan="magnify" viewBox="0 0 1188 296.999993" height="396" preserveAspectRatio="xMidYMid meet" version="1.0"><defs><filter x="0%" y="0%" width="100%" height="100%" id="13c2bab599"><feColorMatrix values="0 0 0 0 1 0 0 0 0 1 0 0 0 0 1 0 0 0 1 0" color-interpolation-filters="sRGB"></feColorMatrix></filter><filter x="0%" y="0%" width="100%" height="100%" id="d3f1016ce7"><feColorMatrix values="0 0 0 0 1 0 0 0 0 1 0 0 0 0 1 0.2126 0.7152 0.0722 0 0" color-interpolation-filters="sRGB"></feColorMatrix></filter><g></g><mask id="2a17b5f7f3"><g filter="url(#13c2bab599)"><g filter="url(#d3f1016ce7)" transform="matrix(0.625714, 0, 0, 0.625263, 29.70001, 0)"><image x="0" y="0" width="525" height="475" preserveAspectRatio="xMidYMid meet"></image></g></g></mask><clipPath id="f0b7f4d93b"><path d="M 399.363281 21.054688 L 1133.613281 21.054688 L 1133.613281 204.804688 L 399.363281 204.804688 Z M 399.363281 21.054688 " clip-rule="nonzero"></path></clipPath></defs><rect x="-118.8" width="1425.6" fill="#ffffff" y="-29.699999" height="356.399992" fill-opacity="1"></rect><rect x="-118.8" width="1425.6" fill="#000000" y="-29.699999" height="356.399992" fill-opacity="1"></rect><g fill="#ffffff" fill-opacity="1"><g transform="translate(370.429823, 229.539506)"><g><path d="M 4.78125 0 L 0.640625 -18.484375 L 5.015625 -18.484375 L 7.75 -3.46875 L 8.03125 -3.46875 L 11.25 -18.484375 L 16.359375 -18.484375 L 19.59375 -3.46875 L 19.875 -3.46875 L 22.65625 -18.484375 L 26.796875 -18.484375 L 22.59375 0 L 16.96875 0 L 13.859375 -14.953125 L 13.640625 -14.953125 L 10.53125 0 Z M 4.78125 0 "></path></g></g></g><g fill="#ffffff" fill-opacity="1"><g transform="translate(397.138145, 229.539506)"><g><path d="M 8.625 0.390625 C 7.40625 0.390625 6.320312 0.222656 5.375 -0.109375 C 4.4375 -0.441406 3.640625 -0.929688 2.984375 -1.578125 C 2.335938 -2.222656 1.847656 -3.003906 1.515625 -3.921875 C 1.179688 -4.847656 1.015625 -5.898438 1.015625 -7.078125 C 1.015625 -8.234375 1.175781 -9.300781 1.5 -10.28125 C 1.820312 -11.269531 2.296875 -12.125 2.921875 -12.84375 C 3.546875 -13.5625 4.316406 -14.113281 5.234375 -14.5 C 6.148438 -14.894531 7.1875 -15.09375 8.34375 -15.09375 C 9.476562 -15.09375 10.476562 -14.90625 11.34375 -14.53125 C 12.21875 -14.15625 12.941406 -13.601562 13.515625 -12.875 C 14.097656 -12.144531 14.523438 -11.257812 14.796875 -10.21875 C 15.066406 -9.175781 15.15625 -7.972656 15.0625 -6.609375 L 3.609375 -6.53125 L 3.609375 -8.734375 L 12.6875 -8.8125 L 11.34375 -7.671875 C 11.46875 -8.660156 11.40625 -9.472656 11.15625 -10.109375 C 10.90625 -10.742188 10.53125 -11.207031 10.03125 -11.5 C 9.539062 -11.800781 8.988281 -11.953125 8.375 -11.953125 C 7.664062 -11.953125 7.046875 -11.765625 6.515625 -11.390625 C 5.984375 -11.023438 5.570312 -10.484375 5.28125 -9.765625 C 4.988281 -9.046875 4.84375 -8.179688 4.84375 -7.171875 C 4.84375 -5.578125 5.1875 -4.410156 5.875 -3.671875 C 6.570312 -2.941406 7.488281 -2.578125 8.625 -2.578125 C 9.144531 -2.578125 9.585938 -2.644531 9.953125 -2.78125 C 10.316406 -2.925781 10.613281 -3.109375 10.84375 -3.328125 C 11.082031 -3.554688 11.265625 -3.8125 11.390625 -4.09375 C 11.523438 -4.375 11.628906 -4.660156 11.703125 -4.953125 L 15.234375 -4.234375 C 15.097656 -3.535156 14.867188 -2.90625 14.546875 -2.34375 C 14.222656 -1.789062 13.789062 -1.304688 13.25 -0.890625 C 12.71875 -0.484375 12.066406 -0.171875 11.296875 0.046875 C 10.535156 0.273438 9.644531 0.390625 8.625 0.390625 Z M 8.625 0.390625 "></path></g></g></g><g fill="#ffffff" fill-opacity="1"><g transform="translate(413.291938, 229.539506)"><g></g></g></g><g fill="#ffffff" fill-opacity="1"><g transform="translate(419.675063, 229.539506)"><g><path d="M 8.625 0.390625 C 7.40625 0.390625 6.320312 0.222656 5.375 -0.109375 C 4.4375 -0.441406 3.640625 -0.929688 2.984375 -1.578125 C 2.335938 -2.222656 1.847656 -3.003906 1.515625 -3.921875 C 1.179688 -4.847656 1.015625 -5.898438 1.015625 -7.078125 C 1.015625 -8.234375 1.175781 -9.300781 1.5 -10.28125 C 1.820312 -11.269531 2.296875 -12.125 2.921875 -12.84375 C 3.546875 -13.5625 4.316406 -14.113281 5.234375 -14.5 C 6.148438 -14.894531 7.1875 -15.09375 8.34375 -15.09375 C 9.476562 -15.09375 10.476562 -14.90625 11.34375 -14.53125 C 12.21875 -14.15625 12.941406 -13.601562 13.515625 -12.875 C 14.097656 -12.144531 14.523438 -11.257812 14.796875 -10.21875 C 15.066406 -9.175781 15.15625 -7.972656 15.0625 -6.609375 L 3.609375 -6.53125 L 3.609375 -8.734375 L 12.6875 -8.8125 L 11.34375 -7.671875 C 11.46875 -8.660156 11.40625 -9.472656 11.15625 -10.109375 C 10.90625 -10.742188 10.53125 -11.207031 10.03125 -11.5 C 9.539062 -11.800781 8.988281 -11.953125 8.375 -11.953125 C 7.664062 -11.953125 7.046875 -11.765625 6.515625 -11.390625 C 5.984375 -11.023438 5.570312 -10.484375 5.28125 -9.765625 C 4.988281 -9.046875 4.84375 -8.179688 4.84375 -7.171875 C 4.84375 -5.578125 5.1875 -4.410156 5.875 -3.671875 C 6.570312 -2.941406 7.488281 -2.578125 8.625 -2.578125 C 9.144531 -2.578125 9.585938 -2.644531 9.953125 -2.78125 C 10.316406 -2.925781 10.613281 -3.109375 10.84375 -3.328125 C 11.082031 -3.554688 11.265625 -3.8125 11.390625 -4.09375 C 11.523438 -4.375 11.628906 -4.660156 11.703125 -4.953125 L 15.234375 -4.234375 C 15.097656 -3.535156 14.867188 -2.90625 14.546875 -2.34375 C 14.222656 -1.789062 13.789062 -1.304688 13.25 -0.890625 C 12.71875 -0.484375 12.066406 -0.171875 11.296875 0.046875 C 10.535156 0.273438 9.644531 0.390625 8.625 0.390625 Z M 8.625 0.390625 "></path></g></g></g><g fill="#ffffff" fill-opacity="1"><g transform="translate(435.828855, 229.539506)"><g><path d="M 1.796875 0 L 1.796875 -14.703125 L 5.09375 -14.703125 L 5.0625 -10.140625 L 5.59375 -10.140625 C 5.84375 -11.347656 6.203125 -12.3125 6.671875 -13.03125 C 7.148438 -13.75 7.726562 -14.269531 8.40625 -14.59375 C 9.09375 -14.925781 9.863281 -15.09375 10.71875 -15.09375 C 11.695312 -15.09375 12.5 -14.921875 13.125 -14.578125 C 13.75 -14.234375 14.242188 -13.78125 14.609375 -13.21875 C 14.984375 -12.65625 15.265625 -12.039062 15.453125 -11.375 C 15.640625 -10.71875 15.757812 -10.0625 15.8125 -9.40625 C 15.875 -8.75 15.90625 -8.160156 15.90625 -7.640625 L 15.90625 0 L 11.875 0 L 11.875 -7.171875 C 11.875 -7.523438 11.851562 -7.953125 11.8125 -8.453125 C 11.78125 -8.960938 11.679688 -9.460938 11.515625 -9.953125 C 11.359375 -10.453125 11.097656 -10.867188 10.734375 -11.203125 C 10.367188 -11.535156 9.863281 -11.703125 9.21875 -11.703125 C 8.46875 -11.703125 7.84375 -11.472656 7.34375 -11.015625 C 6.851562 -10.554688 6.476562 -9.9375 6.21875 -9.15625 C 5.957031 -8.375 5.828125 -7.5 5.828125 -6.53125 L 5.828125 0 Z M 1.796875 0 "></path></g></g></g><g fill="#ffffff" fill-opacity="1"><g transform="translate(453.326469, 229.539506)"><g><path d="M 7.609375 5.0625 C 5.992188 5.0625 4.671875 4.9375 3.640625 4.6875 C 2.609375 4.4375 1.851562 4.066406 1.375 3.578125 C 0.90625 3.097656 0.671875 2.503906 0.671875 1.796875 C 0.671875 0.929688 1.003906 0.226562 1.671875 -0.3125 C 2.347656 -0.851562 3.359375 -1.175781 4.703125 -1.28125 L 4.703125 -1.8125 C 3.671875 -1.8125 2.890625 -1.921875 2.359375 -2.140625 C 1.828125 -2.367188 1.5625 -2.753906 1.5625 -3.296875 C 1.5625 -3.828125 1.820312 -4.296875 2.34375 -4.703125 C 2.875 -5.109375 3.753906 -5.425781 4.984375 -5.65625 L 4.984375 -6.1875 C 3.847656 -6.28125 2.953125 -6.660156 2.296875 -7.328125 C 1.640625 -8.003906 1.3125 -8.875 1.3125 -9.9375 C 1.3125 -10.875 1.570312 -11.707031 2.09375 -12.4375 C 2.625 -13.175781 3.398438 -13.765625 4.421875 -14.203125 C 5.453125 -14.648438 6.710938 -14.875 8.203125 -14.875 L 15.65625 -14.875 L 15.65625 -11.765625 L 10.96875 -12.40625 L 10.96875 -11.8125 C 12.1875 -11.625 13.066406 -11.3125 13.609375 -10.875 C 14.148438 -10.4375 14.421875 -9.84375 14.421875 -9.09375 C 14.421875 -8.332031 14.171875 -7.660156 13.671875 -7.078125 C 13.179688 -6.503906 12.472656 -6.050781 11.546875 -5.71875 C 10.617188 -5.394531 9.503906 -5.234375 8.203125 -5.234375 C 7.960938 -5.234375 7.695312 -5.242188 7.40625 -5.265625 C 7.113281 -5.296875 6.660156 -5.351562 6.046875 -5.4375 C 5.691406 -5.15625 5.410156 -4.921875 5.203125 -4.734375 C 5.003906 -4.546875 4.90625 -4.367188 4.90625 -4.203125 C 4.90625 -4.066406 4.972656 -3.957031 5.109375 -3.875 C 5.242188 -3.789062 5.421875 -3.726562 5.640625 -3.6875 C 5.867188 -3.65625 6.109375 -3.640625 6.359375 -3.640625 L 10.578125 -3.640625 C 10.953125 -3.640625 11.4375 -3.609375 12.03125 -3.546875 C 12.632812 -3.492188 13.234375 -3.347656 13.828125 -3.109375 C 14.429688 -2.878906 14.9375 -2.5 15.34375 -1.96875 C 15.75 -1.4375 15.953125 -0.675781 15.953125 0.3125 C 15.953125 1.394531 15.648438 2.285156 15.046875 2.984375 C 14.441406 3.679688 13.519531 4.203125 12.28125 4.546875 C 11.050781 4.890625 9.492188 5.0625 7.609375 5.0625 Z M 8.03125 1.8125 C 9.175781 1.8125 10.066406 1.75 10.703125 1.625 C 11.347656 1.507812 11.800781 1.320312 12.0625 1.0625 C 12.320312 0.800781 12.453125 0.472656 12.453125 0.078125 C 12.453125 -0.285156 12.367188 -0.570312 12.203125 -0.78125 C 12.035156 -0.988281 11.832031 -1.132812 11.59375 -1.21875 C 11.351562 -1.300781 11.097656 -1.351562 10.828125 -1.375 C 10.566406 -1.394531 10.351562 -1.40625 10.1875 -1.40625 L 6.640625 -1.40625 C 5.847656 -1.320312 5.285156 -1.113281 4.953125 -0.78125 C 4.617188 -0.445312 4.453125 -0.0546875 4.453125 0.390625 C 4.453125 0.765625 4.582031 1.050781 4.84375 1.25 C 5.101562 1.457031 5.5 1.601562 6.03125 1.6875 C 6.5625 1.769531 7.226562 1.8125 8.03125 1.8125 Z M 8.015625 -7.359375 C 8.890625 -7.359375 9.550781 -7.578125 10 -8.015625 C 10.445312 -8.460938 10.671875 -9.03125 10.671875 -9.71875 C 10.671875 -10.46875 10.441406 -11.082031 9.984375 -11.5625 C 9.523438 -12.050781 8.867188 -12.296875 8.015625 -12.296875 C 7.148438 -12.296875 6.476562 -12.054688 6 -11.578125 C 5.53125 -11.097656 5.296875 -10.488281 5.296875 -9.75 C 5.296875 -9.28125 5.398438 -8.863281 5.609375 -8.5 C 5.828125 -8.132812 6.132812 -7.851562 6.53125 -7.65625 C 6.9375 -7.457031 7.429688 -7.359375 8.015625 -7.359375 Z M 8.015625 -7.359375 "></path></g></g></g><g fill="#ffffff" fill-opacity="1"><g transform="translate(470.012194, 229.539506)"><g><path d="M 1.796875 0 L 1.796875 -14.703125 L 5.828125 -14.703125 L 5.828125 0 Z M 3.8125 -16.828125 C 3.019531 -16.828125 2.414062 -16.992188 2 -17.328125 C 1.582031 -17.671875 1.375 -18.148438 1.375 -18.765625 C 1.375 -19.421875 1.582031 -19.914062 2 -20.25 C 2.414062 -20.582031 3.019531 -20.75 3.8125 -20.75 C 4.613281 -20.75 5.222656 -20.582031 5.640625 -20.25 C 6.054688 -19.914062 6.265625 -19.421875 6.265625 -18.765625 C 6.265625 -18.148438 6.054688 -17.671875 5.640625 -17.328125 C 5.222656 -16.992188 4.613281 -16.828125 3.8125 -16.828125 Z M 3.8125 -16.828125 "></path></g></g></g><g fill="#ffffff" fill-opacity="1"><g transform="translate(477.627161, 229.539506)"><g><path d="M 1.796875 0 L 1.796875 -14.703125 L 5.09375 -14.703125 L 5.0625 -10.140625 L 5.59375 -10.140625 C 5.84375 -11.347656 6.203125 -12.3125 6.671875 -13.03125 C 7.148438 -13.75 7.726562 -14.269531 8.40625 -14.59375 C 9.09375 -14.925781 9.863281 -15.09375 10.71875 -15.09375 C 11.695312 -15.09375 12.5 -14.921875 13.125 -14.578125 C 13.75 -14.234375 14.242188 -13.78125 14.609375 -13.21875 C 14.984375 -12.65625 15.265625 -12.039062 15.453125 -11.375 C 15.640625 -10.71875 15.757812 -10.0625 15.8125 -9.40625 C 15.875 -8.75 15.90625 -8.160156 15.90625 -7.640625 L 15.90625 0 L 11.875 0 L 11.875 -7.171875 C 11.875 -7.523438 11.851562 -7.953125 11.8125 -8.453125 C 11.78125 -8.960938 11.679688 -9.460938 11.515625 -9.953125 C 11.359375 -10.453125 11.097656 -10.867188 10.734375 -11.203125 C 10.367188 -11.535156 9.863281 -11.703125 9.21875 -11.703125 C 8.46875 -11.703125 7.84375 -11.472656 7.34375 -11.015625 C 6.851562 -10.554688 6.476562 -9.9375 6.21875 -9.15625 C 5.957031 -8.375 5.828125 -7.5 5.828125 -6.53125 L 5.828125 0 Z M 1.796875 0 "></path></g></g></g><g fill="#ffffff" fill-opacity="1"><g transform="translate(495.124775, 229.539506)"><g><path d="M 8.625 0.390625 C 7.40625 0.390625 6.320312 0.222656 5.375 -0.109375 C 4.4375 -0.441406 3.640625 -0.929688 2.984375 -1.578125 C 2.335938 -2.222656 1.847656 -3.003906 1.515625 -3.921875 C 1.179688 -4.847656 1.015625 -5.898438 1.015625 -7.078125 C 1.015625 -8.234375 1.175781 -9.300781 1.5 -10.28125 C 1.820312 -11.269531 2.296875 -12.125 2.921875 -12.84375 C 3.546875 -13.5625 4.316406 -14.113281 5.234375 -14.5 C 6.148438 -14.894531 7.1875 -15.09375 8.34375 -15.09375 C 9.476562 -15.09375 10.476562 -14.90625 11.34375 -14.53125 C 12.21875 -14.15625 12.941406 -13.601562 13.515625 -12.875 C 14.097656 -12.144531 14.523438 -11.257812 14.796875 -10.21875 C 15.066406 -9.175781 15.15625 -7.972656 15.0625 -6.609375 L 3.609375 -6.53125 L 3.609375 -8.734375 L 12.6875 -8.8125 L 11.34375 -7.671875 C 11.46875 -8.660156 11.40625 -9.472656 11.15625 -10.109375 C 10.90625 -10.742188 10.53125 -11.207031 10.03125 -11.5 C 9.539062 -11.800781 8.988281 -11.953125 8.375 -11.953125 C 7.664062 -11.953125 7.046875 -11.765625 6.515625 -11.390625 C 5.984375 -11.023438 5.570312 -10.484375 5.28125 -9.765625 C 4.988281 -9.046875 4.84375 -8.179688 4.84375 -7.171875 C 4.84375 -5.578125 5.1875 -4.410156 5.875 -3.671875 C 6.570312 -2.941406 7.488281 -2.578125 8.625 -2.578125 C 9.144531 -2.578125 9.585938 -2.644531 9.953125 -2.78125 C 10.316406 -2.925781 10.613281 -3.109375 10.84375 -3.328125 C 11.082031 -3.554688 11.265625 -3.8125 11.390625 -4.09375 C 11.523438 -4.375 11.628906 -4.660156 11.703125 -4.953125 L 15.234375 -4.234375 C 15.097656 -3.535156 14.867188 -2.90625 14.546875 -2.34375 C 14.222656 -1.789062 13.789062 -1.304688 13.25 -0.890625 C 12.71875 -0.484375 12.066406 -0.171875 11.296875 0.046875 C 10.535156 0.273438 9.644531 0.390625 8.625 0.390625 Z M 8.625 0.390625 "></path></g></g></g><g fill="#ffffff" fill-opacity="1"><g transform="translate(511.362556, 229.539506)"><g><path d="M 8.625 0.390625 C 7.40625 0.390625 6.320312 0.222656 5.375 -0.109375 C 4.4375 -0.441406 3.640625 -0.929688 2.984375 -1.578125 C 2.335938 -2.222656 1.847656 -3.003906 1.515625 -3.921875 C 1.179688 -4.847656 1.015625 -5.898438 1.015625 -7.078125 C 1.015625 -8.234375 1.175781 -9.300781 1.5 -10.28125 C 1.820312 -11.269531 2.296875 -12.125 2.921875 -12.84375 C 3.546875 -13.5625 4.316406 -14.113281 5.234375 -14.5 C 6.148438 -14.894531 7.1875 -15.09375 8.34375 -15.09375 C 9.476562 -15.09375 10.476562 -14.90625 11.34375 -14.53125 C 12.21875 -14.15625 12.941406 -13.601562 13.515625 -12.875 C 14.097656 -12.144531 14.523438 -11.257812 14.796875 -10.21875 C 15.066406 -9.175781 15.15625 -7.972656 15.0625 -6.609375 L 3.609375 -6.53125 L 3.609375 -8.734375 L 12.6875 -8.8125 L 11.34375 -7.671875 C 11.46875 -8.660156 11.40625 -9.472656 11.15625 -10.109375 C 10.90625 -10.742188 10.53125 -11.207031 10.03125 -11.5 C 9.539062 -11.800781 8.988281 -11.953125 8.375 -11.953125 C 7.664062 -11.953125 7.046875 -11.765625 6.515625 -11.390625 C 5.984375 -11.023438 5.570312 -10.484375 5.28125 -9.765625 C 4.988281 -9.046875 4.84375 -8.179688 4.84375 -7.171875 C 4.84375 -5.578125 5.1875 -4.410156 5.875 -3.671875 C 6.570312 -2.941406 7.488281 -2.578125 8.625 -2.578125 C 9.144531 -2.578125 9.585938 -2.644531 9.953125 -2.78125 C 10.316406 -2.925781 10.613281 -3.109375 10.84375 -3.328125 C 11.082031 -3.554688 11.265625 -3.8125 11.390625 -4.09375 C 11.523438 -4.375 11.628906 -4.660156 11.703125 -4.953125 L 15.234375 -4.234375 C 15.097656 -3.535156 14.867188 -2.90625 14.546875 -2.34375 C 14.222656 -1.789062 13.789062 -1.304688 13.25 -0.890625 C 12.71875 -0.484375 12.066406 -0.171875 11.296875 0.046875 C 10.535156 0.273438 9.644531 0.390625 8.625 0.390625 Z M 8.625 0.390625 "></path></g></g></g><g fill="#ffffff" fill-opacity="1"><g transform="translate(527.516348, 229.539506)"><g><path d="M 1.796875 0 L 1.796875 -14.703125 L 5.15625 -14.703125 L 5.125 -9.609375 L 5.65625 -9.609375 C 5.800781 -10.878906 6.050781 -11.914062 6.40625 -12.71875 C 6.757812 -13.519531 7.257812 -14.101562 7.90625 -14.46875 C 8.550781 -14.84375 9.347656 -15.03125 10.296875 -15.03125 C 10.484375 -15.03125 10.679688 -15.019531 10.890625 -15 C 11.097656 -14.988281 11.332031 -14.953125 11.59375 -14.890625 L 11.453125 -10.609375 C 11.128906 -10.742188 10.804688 -10.835938 10.484375 -10.890625 C 10.160156 -10.941406 9.859375 -10.96875 9.578125 -10.96875 C 8.867188 -10.96875 8.25 -10.800781 7.71875 -10.46875 C 7.195312 -10.132812 6.78125 -9.648438 6.46875 -9.015625 C 6.164062 -8.378906 5.953125 -7.59375 5.828125 -6.65625 L 5.828125 0 Z M 1.796875 0 "></path></g></g></g><g fill="#ffffff" fill-opacity="1"><g transform="translate(539.554708, 229.539506)"><g></g></g></g><g fill="#ffffff" fill-opacity="1"><g transform="translate(545.937833, 229.539506)"><g><path d="M 7.34375 5.015625 C 6.59375 5.015625 5.832031 4.945312 5.0625 4.8125 C 4.300781 4.6875 3.578125 4.484375 2.890625 4.203125 C 2.210938 3.921875 1.640625 3.554688 1.171875 3.109375 L 2.296875 -0.390625 C 2.890625 0.242188 3.628906 0.707031 4.515625 1 C 5.410156 1.300781 6.285156 1.453125 7.140625 1.453125 C 8.054688 1.453125 8.804688 1.296875 9.390625 0.984375 C 9.984375 0.679688 10.441406 0.265625 10.765625 -0.265625 C 11.085938 -0.796875 11.320312 -1.410156 11.46875 -2.109375 C 11.625 -2.804688 11.710938 -3.550781 11.734375 -4.34375 L 11.875 -6.640625 L 11.28125 -6.640625 C 11.113281 -5.390625 10.816406 -4.367188 10.390625 -3.578125 C 9.972656 -2.796875 9.441406 -2.222656 8.796875 -1.859375 C 8.160156 -1.492188 7.40625 -1.3125 6.53125 -1.3125 C 5.570312 -1.3125 4.78125 -1.503906 4.15625 -1.890625 C 3.53125 -2.273438 3.050781 -2.769531 2.71875 -3.375 C 2.382812 -3.976562 2.132812 -4.613281 1.96875 -5.28125 C 1.8125 -5.957031 1.71875 -6.59375 1.6875 -7.1875 C 1.664062 -7.789062 1.65625 -8.257812 1.65625 -8.59375 L 1.65625 -14.703125 L 5.6875 -14.703125 L 5.6875 -9.75 C 5.6875 -9.375 5.691406 -8.957031 5.703125 -8.5 C 5.722656 -8.039062 5.765625 -7.585938 5.828125 -7.140625 C 5.898438 -6.691406 6.023438 -6.273438 6.203125 -5.890625 C 6.378906 -5.503906 6.613281 -5.195312 6.90625 -4.96875 C 7.207031 -4.75 7.59375 -4.640625 8.0625 -4.640625 C 8.675781 -4.640625 9.164062 -4.828125 9.53125 -5.203125 C 9.894531 -5.578125 10.179688 -6.046875 10.390625 -6.609375 C 10.597656 -7.171875 10.738281 -7.75 10.8125 -8.34375 C 10.882812 -8.9375 10.929688 -9.453125 10.953125 -9.890625 L 10.953125 -14.703125 L 14.984375 -14.703125 L 14.984375 -4.171875 C 14.984375 -3.648438 14.953125 -3.066406 14.890625 -2.421875 C 14.835938 -1.773438 14.734375 -1.109375 14.578125 -0.421875 C 14.421875 0.265625 14.164062 0.929688 13.8125 1.578125 C 13.46875 2.222656 13.015625 2.804688 12.453125 3.328125 C 11.898438 3.847656 11.203125 4.257812 10.359375 4.5625 C 9.515625 4.863281 8.507812 5.015625 7.34375 5.015625 Z M 7.34375 5.015625 "></path></g></g></g><g fill="#ffffff" fill-opacity="1"><g transform="translate(562.679542, 229.539506)"><g><path d="M 8.484375 0.390625 C 7.003906 0.390625 5.703125 0.0976562 4.578125 -0.484375 C 3.460938 -1.078125 2.585938 -1.945312 1.953125 -3.09375 C 1.328125 -4.238281 1.015625 -5.671875 1.015625 -7.390625 C 1.015625 -9.109375 1.332031 -10.535156 1.96875 -11.671875 C 2.613281 -12.816406 3.492188 -13.671875 4.609375 -14.234375 C 5.734375 -14.804688 7.015625 -15.09375 8.453125 -15.09375 C 9.929688 -15.09375 11.226562 -14.800781 12.34375 -14.21875 C 13.46875 -13.644531 14.347656 -12.78125 14.984375 -11.625 C 15.628906 -10.476562 15.953125 -9.050781 15.953125 -7.34375 C 15.953125 -5.582031 15.625 -4.128906 14.96875 -2.984375 C 14.320312 -1.847656 13.425781 -1 12.28125 -0.4375 C 11.144531 0.113281 9.878906 0.390625 8.484375 0.390625 Z M 8.59375 -2.609375 C 9.039062 -2.609375 9.457031 -2.679688 9.84375 -2.828125 C 10.238281 -2.972656 10.59375 -3.21875 10.90625 -3.5625 C 11.21875 -3.914062 11.460938 -4.382812 11.640625 -4.96875 C 11.816406 -5.5625 11.90625 -6.273438 11.90625 -7.109375 C 11.90625 -8.003906 11.804688 -8.757812 11.609375 -9.375 C 11.410156 -9.988281 11.144531 -10.488281 10.8125 -10.875 C 10.488281 -11.257812 10.113281 -11.535156 9.6875 -11.703125 C 9.257812 -11.867188 8.8125 -11.953125 8.34375 -11.953125 C 7.914062 -11.953125 7.5 -11.878906 7.09375 -11.734375 C 6.695312 -11.585938 6.347656 -11.335938 6.046875 -10.984375 C 5.742188 -10.640625 5.5 -10.175781 5.3125 -9.59375 C 5.132812 -9.019531 5.046875 -8.304688 5.046875 -7.453125 C 5.046875 -6.554688 5.132812 -5.796875 5.3125 -5.171875 C 5.5 -4.554688 5.757812 -4.054688 6.09375 -3.671875 C 6.4375 -3.296875 6.820312 -3.023438 7.25 -2.859375 C 7.675781 -2.691406 8.125 -2.609375 8.59375 -2.609375 Z M 8.59375 -2.609375 "></path></g></g></g><g fill="#ffffff" fill-opacity="1"><g transform="translate(579.645224, 229.539506)"><g><path d="M 6.71875 0.390625 C 5.988281 0.390625 5.34375 0.285156 4.78125 0.078125 C 4.226562 -0.117188 3.75 -0.414062 3.34375 -0.8125 C 2.945312 -1.21875 2.613281 -1.707031 2.34375 -2.28125 C 2.082031 -2.851562 1.882812 -3.503906 1.75 -4.234375 C 1.625 -4.972656 1.5625 -5.789062 1.5625 -6.6875 L 1.5625 -14.703125 L 5.625 -14.703125 L 5.625 -7.59375 C 5.625 -7.175781 5.640625 -6.707031 5.671875 -6.1875 C 5.703125 -5.664062 5.796875 -5.15625 5.953125 -4.65625 C 6.109375 -4.164062 6.363281 -3.757812 6.71875 -3.4375 C 7.070312 -3.125 7.566406 -2.96875 8.203125 -2.96875 C 8.722656 -2.96875 9.175781 -3.09375 9.5625 -3.34375 C 9.945312 -3.59375 10.273438 -3.957031 10.546875 -4.4375 C 10.828125 -4.914062 11.035156 -5.472656 11.171875 -6.109375 C 11.316406 -6.753906 11.398438 -7.460938 11.421875 -8.234375 L 11.421875 -14.703125 L 15.453125 -14.703125 L 15.453125 0 L 12.1875 0 L 12.1875 -4.703125 L 11.671875 -4.703125 C 11.429688 -3.503906 11.097656 -2.53125 10.671875 -1.78125 C 10.242188 -1.039062 9.707031 -0.492188 9.0625 -0.140625 C 8.414062 0.210938 7.632812 0.390625 6.71875 0.390625 Z M 6.71875 0.390625 "></path></g></g></g><g fill="#ffffff" fill-opacity="1"><g transform="translate(596.890875, 229.539506)"><g><path d="M 1.796875 0 L 1.796875 -14.703125 L 5.15625 -14.703125 L 5.125 -9.609375 L 5.65625 -9.609375 C 5.800781 -10.878906 6.050781 -11.914062 6.40625 -12.71875 C 6.757812 -13.519531 7.257812 -14.101562 7.90625 -14.46875 C 8.550781 -14.84375 9.347656 -15.03125 10.296875 -15.03125 C 10.484375 -15.03125 10.679688 -15.019531 10.890625 -15 C 11.097656 -14.988281 11.332031 -14.953125 11.59375 -14.890625 L 11.453125 -10.609375 C 11.128906 -10.742188 10.804688 -10.835938 10.484375 -10.890625 C 10.160156 -10.941406 9.859375 -10.96875 9.578125 -10.96875 C 8.867188 -10.96875 8.25 -10.800781 7.71875 -10.46875 C 7.195312 -10.132812 6.78125 -9.648438 6.46875 -9.015625 C 6.164062 -8.378906 5.953125 -7.59375 5.828125 -6.65625 L 5.828125 0 Z M 1.796875 0 "></path></g></g></g><g fill="#ffffff" fill-opacity="1"><g transform="translate(608.929235, 229.539506)"><g></g></g></g><g fill="#ffffff" fill-opacity="1"><g transform="translate(615.312359, 229.539506)"><g><path d="M 8.59375 0.390625 C 7.320312 0.390625 6.210938 0.203125 5.265625 -0.171875 C 4.316406 -0.546875 3.523438 -1.066406 2.890625 -1.734375 C 2.265625 -2.410156 1.796875 -3.207031 1.484375 -4.125 C 1.171875 -5.050781 1.015625 -6.066406 1.015625 -7.171875 C 1.015625 -8.328125 1.171875 -9.382812 1.484375 -10.34375 C 1.796875 -11.300781 2.269531 -12.132812 2.90625 -12.84375 C 3.539062 -13.5625 4.320312 -14.113281 5.25 -14.5 C 6.1875 -14.894531 7.253906 -15.09375 8.453125 -15.09375 C 9.367188 -15.09375 10.191406 -14.972656 10.921875 -14.734375 C 11.648438 -14.503906 12.285156 -14.175781 12.828125 -13.75 C 13.367188 -13.332031 13.8125 -12.832031 14.15625 -12.25 C 14.5 -11.664062 14.726562 -11.007812 14.84375 -10.28125 L 11.140625 -9.15625 C 11.085938 -9.75 10.929688 -10.253906 10.671875 -10.671875 C 10.421875 -11.097656 10.09375 -11.410156 9.6875 -11.609375 C 9.28125 -11.816406 8.804688 -11.921875 8.265625 -11.921875 C 7.816406 -11.921875 7.398438 -11.832031 7.015625 -11.65625 C 6.628906 -11.476562 6.289062 -11.207031 6 -10.84375 C 5.71875 -10.476562 5.488281 -10.003906 5.3125 -9.421875 C 5.144531 -8.847656 5.0625 -8.15625 5.0625 -7.34375 C 5.0625 -6.238281 5.207031 -5.335938 5.5 -4.640625 C 5.789062 -3.953125 6.207031 -3.441406 6.75 -3.109375 C 7.289062 -2.785156 7.925781 -2.625 8.65625 -2.625 C 9.382812 -2.625 9.96875 -2.773438 10.40625 -3.078125 C 10.84375 -3.378906 11.164062 -3.757812 11.375 -4.21875 C 11.59375 -4.675781 11.722656 -5.15625 11.765625 -5.65625 L 15.3125 -4.90625 C 15.238281 -4.175781 15.050781 -3.488281 14.75 -2.84375 C 14.457031 -2.195312 14.035156 -1.628906 13.484375 -1.140625 C 12.929688 -0.660156 12.25 -0.285156 11.4375 -0.015625 C 10.625 0.253906 9.675781 0.390625 8.59375 0.390625 Z M 8.59375 0.390625 "></path></g></g></g><g fill="#ffffff" fill-opacity="1"><g transform="translate(631.074214, 229.539506)"><g><path d="M 8.484375 0.390625 C 7.003906 0.390625 5.703125 0.0976562 4.578125 -0.484375 C 3.460938 -1.078125 2.585938 -1.945312 1.953125 -3.09375 C 1.328125 -4.238281 1.015625 -5.671875 1.015625 -7.390625 C 1.015625 -9.109375 1.332031 -10.535156 1.96875 -11.671875 C 2.613281 -12.816406 3.492188 -13.671875 4.609375 -14.234375 C 5.734375 -14.804688 7.015625 -15.09375 8.453125 -15.09375 C 9.929688 -15.09375 11.226562 -14.800781 12.34375 -14.21875 C 13.46875 -13.644531 14.347656 -12.78125 14.984375 -11.625 C 15.628906 -10.476562 15.953125 -9.050781 15.953125 -7.34375 C 15.953125 -5.582031 15.625 -4.128906 14.96875 -2.984375 C 14.320312 -1.847656 13.425781 -1 12.28125 -0.4375 C 11.144531 0.113281 9.878906 0.390625 8.484375 0.390625 Z M 8.59375 -2.609375 C 9.039062 -2.609375 9.457031 -2.679688 9.84375 -2.828125 C 10.238281 -2.972656 10.59375 -3.21875 10.90625 -3.5625 C 11.21875 -3.914062 11.460938 -4.382812 11.640625 -4.96875 C 11.816406 -5.5625 11.90625 -6.273438 11.90625 -7.109375 C 11.90625 -8.003906 11.804688 -8.757812 11.609375 -9.375 C 11.410156 -9.988281 11.144531 -10.488281 10.8125 -10.875 C 10.488281 -11.257812 10.113281 -11.535156 9.6875 -11.703125 C 9.257812 -11.867188 8.8125 -11.953125 8.34375 -11.953125 C 7.914062 -11.953125 7.5 -11.878906 7.09375 -11.734375 C 6.695312 -11.585938 6.347656 -11.335938 6.046875 -10.984375 C 5.742188 -10.640625 5.5 -10.175781 5.3125 -9.59375 C 5.132812 -9.019531 5.046875 -8.304688 5.046875 -7.453125 C 5.046875 -6.554688 5.132812 -5.796875 5.3125 -5.171875 C 5.5 -4.554688 5.757812 -4.054688 6.09375 -3.671875 C 6.4375 -3.296875 6.820312 -3.023438 7.25 -2.859375 C 7.675781 -2.691406 8.125 -2.609375 8.59375 -2.609375 Z M 8.59375 -2.609375 "></path></g></g></g><g fill="#ffffff" fill-opacity="1"><g transform="translate(648.039897, 229.539506)"><g><path d="M 1.796875 0 L 1.796875 -14.703125 L 5.09375 -14.703125 L 5.0625 -10.140625 L 5.59375 -10.140625 C 5.84375 -11.347656 6.203125 -12.3125 6.671875 -13.03125 C 7.148438 -13.75 7.726562 -14.269531 8.40625 -14.59375 C 9.09375 -14.925781 9.863281 -15.09375 10.71875 -15.09375 C 11.695312 -15.09375 12.5 -14.921875 13.125 -14.578125 C 13.75 -14.234375 14.242188 -13.78125 14.609375 -13.21875 C 14.984375 -12.65625 15.265625 -12.039062 15.453125 -11.375 C 15.640625 -10.71875 15.757812 -10.0625 15.8125 -9.40625 C 15.875 -8.75 15.90625 -8.160156 15.90625 -7.640625 L 15.90625 0 L 11.875 0 L 11.875 -7.171875 C 11.875 -7.523438 11.851562 -7.953125 11.8125 -8.453125 C 11.78125 -8.960938 11.679688 -9.460938 11.515625 -9.953125 C 11.359375 -10.453125 11.097656 -10.867188 10.734375 -11.203125 C 10.367188 -11.535156 9.863281 -11.703125 9.21875 -11.703125 C 8.46875 -11.703125 7.84375 -11.472656 7.34375 -11.015625 C 6.851562 -10.554688 6.476562 -9.9375 6.21875 -9.15625 C 5.957031 -8.375 5.828125 -7.5 5.828125 -6.53125 L 5.828125 0 Z M 1.796875 0 "></path></g></g></g><g fill="#ffffff" fill-opacity="1"><g transform="translate(665.5375, 229.539506)"><g><path d="M 8.59375 0.390625 C 7.320312 0.390625 6.210938 0.203125 5.265625 -0.171875 C 4.316406 -0.546875 3.523438 -1.066406 2.890625 -1.734375 C 2.265625 -2.410156 1.796875 -3.207031 1.484375 -4.125 C 1.171875 -5.050781 1.015625 -6.066406 1.015625 -7.171875 C 1.015625 -8.328125 1.171875 -9.382812 1.484375 -10.34375 C 1.796875 -11.300781 2.269531 -12.132812 2.90625 -12.84375 C 3.539062 -13.5625 4.320312 -14.113281 5.25 -14.5 C 6.1875 -14.894531 7.253906 -15.09375 8.453125 -15.09375 C 9.367188 -15.09375 10.191406 -14.972656 10.921875 -14.734375 C 11.648438 -14.503906 12.285156 -14.175781 12.828125 -13.75 C 13.367188 -13.332031 13.8125 -12.832031 14.15625 -12.25 C 14.5 -11.664062 14.726562 -11.007812 14.84375 -10.28125 L 11.140625 -9.15625 C 11.085938 -9.75 10.929688 -10.253906 10.671875 -10.671875 C 10.421875 -11.097656 10.09375 -11.410156 9.6875 -11.609375 C 9.28125 -11.816406 8.804688 -11.921875 8.265625 -11.921875 C 7.816406 -11.921875 7.398438 -11.832031 7.015625 -11.65625 C 6.628906 -11.476562 6.289062 -11.207031 6 -10.84375 C 5.71875 -10.476562 5.488281 -10.003906 5.3125 -9.421875 C 5.144531 -8.847656 5.0625 -8.15625 5.0625 -7.34375 C 5.0625 -6.238281 5.207031 -5.335938 5.5 -4.640625 C 5.789062 -3.953125 6.207031 -3.441406 6.75 -3.109375 C 7.289062 -2.785156 7.925781 -2.625 8.65625 -2.625 C 9.382812 -2.625 9.96875 -2.773438 10.40625 -3.078125 C 10.84375 -3.378906 11.164062 -3.757812 11.375 -4.21875 C 11.59375 -4.675781 11.722656 -5.15625 11.765625 -5.65625 L 15.3125 -4.90625 C 15.238281 -4.175781 15.050781 -3.488281 14.75 -2.84375 C 14.457031 -2.195312 14.035156 -1.628906 13.484375 -1.140625 C 12.929688 -0.660156 12.25 -0.285156 11.4375 -0.015625 C 10.625 0.253906 9.675781 0.390625 8.59375 0.390625 Z M 8.59375 0.390625 "></path></g></g></g><g fill="#ffffff" fill-opacity="1"><g transform="translate(681.299355, 229.539506)"><g><path d="M 8.625 0.390625 C 7.40625 0.390625 6.320312 0.222656 5.375 -0.109375 C 4.4375 -0.441406 3.640625 -0.929688 2.984375 -1.578125 C 2.335938 -2.222656 1.847656 -3.003906 1.515625 -3.921875 C 1.179688 -4.847656 1.015625 -5.898438 1.015625 -7.078125 C 1.015625 -8.234375 1.175781 -9.300781 1.5 -10.28125 C 1.820312 -11.269531 2.296875 -12.125 2.921875 -12.84375 C 3.546875 -13.5625 4.316406 -14.113281 5.234375 -14.5 C 6.148438 -14.894531 7.1875 -15.09375 8.34375 -15.09375 C 9.476562 -15.09375 10.476562 -14.90625 11.34375 -14.53125 C 12.21875 -14.15625 12.941406 -13.601562 13.515625 -12.875 C 14.097656 -12.144531 14.523438 -11.257812 14.796875 -10.21875 C 15.066406 -9.175781 15.15625 -7.972656 15.0625 -6.609375 L 3.609375 -6.53125 L 3.609375 -8.734375 L 12.6875 -8.8125 L 11.34375 -7.671875 C 11.46875 -8.660156 11.40625 -9.472656 11.15625 -10.109375 C 10.90625 -10.742188 10.53125 -11.207031 10.03125 -11.5 C 9.539062 -11.800781 8.988281 -11.953125 8.375 -11.953125 C 7.664062 -11.953125 7.046875 -11.765625 6.515625 -11.390625 C 5.984375 -11.023438 5.570312 -10.484375 5.28125 -9.765625 C 4.988281 -9.046875 4.84375 -8.179688 4.84375 -7.171875 C 4.84375 -5.578125 5.1875 -4.410156 5.875 -3.671875 C 6.570312 -2.941406 7.488281 -2.578125 8.625 -2.578125 C 9.144531 -2.578125 9.585938 -2.644531 9.953125 -2.78125 C 10.316406 -2.925781 10.613281 -3.109375 10.84375 -3.328125 C 11.082031 -3.554688 11.265625 -3.8125 11.390625 -4.09375 C 11.523438 -4.375 11.628906 -4.660156 11.703125 -4.953125 L 15.234375 -4.234375 C 15.097656 -3.535156 14.867188 -2.90625 14.546875 -2.34375 C 14.222656 -1.789062 13.789062 -1.304688 13.25 -0.890625 C 12.71875 -0.484375 12.066406 -0.171875 11.296875 0.046875 C 10.535156 0.273438 9.644531 0.390625 8.625 0.390625 Z M 8.625 0.390625 "></path></g></g></g><g fill="#ffffff" fill-opacity="1"><g transform="translate(697.453147, 229.539506)"><g><path d="M 1.796875 4.640625 L 1.796875 -14.703125 L 5.15625 -14.703125 L 5.15625 -10.578125 L 5.625 -10.53125 C 5.8125 -11.539062 6.113281 -12.382812 6.53125 -13.0625 C 6.957031 -13.738281 7.5 -14.242188 8.15625 -14.578125 C 8.820312 -14.921875 9.601562 -15.09375 10.5 -15.09375 C 11.789062 -15.09375 12.890625 -14.773438 13.796875 -14.140625 C 14.710938 -13.503906 15.414062 -12.601562 15.90625 -11.4375 C 16.40625 -10.269531 16.65625 -8.882812 16.65625 -7.28125 C 16.65625 -5.789062 16.429688 -4.46875 15.984375 -3.3125 C 15.535156 -2.164062 14.875 -1.257812 14 -0.59375 C 13.125 0.0625 12.03125 0.390625 10.71875 0.390625 C 9.789062 0.390625 9.003906 0.210938 8.359375 -0.140625 C 7.710938 -0.492188 7.175781 -1 6.75 -1.65625 C 6.320312 -2.320312 5.976562 -3.113281 5.71875 -4.03125 L 5.203125 -4.03125 C 5.316406 -3.507812 5.421875 -2.984375 5.515625 -2.453125 C 5.609375 -1.921875 5.679688 -1.398438 5.734375 -0.890625 C 5.796875 -0.390625 5.828125 0.09375 5.828125 0.5625 L 5.828125 4.640625 Z M 9.328125 -2.859375 C 9.972656 -2.859375 10.53125 -3.039062 11 -3.40625 C 11.46875 -3.78125 11.828125 -4.300781 12.078125 -4.96875 C 12.328125 -5.632812 12.453125 -6.394531 12.453125 -7.25 C 12.453125 -8.1875 12.320312 -8.984375 12.0625 -9.640625 C 11.800781 -10.304688 11.425781 -10.820312 10.9375 -11.1875 C 10.457031 -11.550781 9.890625 -11.734375 9.234375 -11.734375 C 8.640625 -11.734375 8.128906 -11.601562 7.703125 -11.34375 C 7.285156 -11.09375 6.929688 -10.753906 6.640625 -10.328125 C 6.359375 -9.898438 6.148438 -9.441406 6.015625 -8.953125 C 5.890625 -8.472656 5.828125 -8 5.828125 -7.53125 L 5.828125 -7.03125 C 5.828125 -6.632812 5.875 -6.242188 5.96875 -5.859375 C 6.0625 -5.484375 6.203125 -5.117188 6.390625 -4.765625 C 6.585938 -4.410156 6.828125 -4.085938 7.109375 -3.796875 C 7.390625 -3.503906 7.71875 -3.273438 8.09375 -3.109375 C 8.46875 -2.941406 8.878906 -2.859375 9.328125 -2.859375 Z M 9.328125 -2.859375 "></path></g></g></g><g fill="#ffffff" fill-opacity="1"><g transform="translate(715.146741, 229.539506)"><g><path d="M 7.28125 0.34375 C 6.476562 0.34375 5.773438 0.238281 5.171875 0.03125 C 4.578125 -0.175781 4.078125 -0.5 3.671875 -0.9375 C 3.273438 -1.375 2.972656 -1.9375 2.765625 -2.625 C 2.566406 -3.320312 2.46875 -4.144531 2.46875 -5.09375 L 2.46875 -11.53125 L 0.359375 -11.53125 L 0.453125 -14.640625 L 1.796875 -14.640625 C 2.410156 -14.660156 2.863281 -14.769531 3.15625 -14.96875 C 3.457031 -15.164062 3.640625 -15.515625 3.703125 -16.015625 L 4.03125 -17.96875 L 6.328125 -17.96875 L 6.328125 -14.703125 L 10.03125 -14.703125 L 10.03125 -11.421875 L 6.328125 -11.421875 L 6.328125 -5.296875 C 6.328125 -4.523438 6.515625 -4.007812 6.890625 -3.75 C 7.265625 -3.488281 7.722656 -3.359375 8.265625 -3.359375 C 8.597656 -3.359375 8.929688 -3.398438 9.265625 -3.484375 C 9.597656 -3.566406 9.890625 -3.6875 10.140625 -3.84375 L 10.140625 -0.078125 C 9.554688 0.0859375 9.019531 0.195312 8.53125 0.25 C 8.050781 0.3125 7.632812 0.34375 7.28125 0.34375 Z M 7.28125 0.34375 "></path></g></g></g><g fill="#ffffff" fill-opacity="1"><g transform="translate(726.17722, 229.539506)"><g><path d="M 7.703125 0.390625 C 6.710938 0.390625 5.816406 0.296875 5.015625 0.109375 C 4.210938 -0.078125 3.519531 -0.351562 2.9375 -0.71875 C 2.363281 -1.082031 1.898438 -1.519531 1.546875 -2.03125 C 1.191406 -2.539062 0.96875 -3.113281 0.875 -3.75 L 3.96875 -4.921875 C 4.050781 -4.515625 4.253906 -4.128906 4.578125 -3.765625 C 4.898438 -3.398438 5.34375 -3.109375 5.90625 -2.890625 C 6.46875 -2.679688 7.148438 -2.578125 7.953125 -2.578125 C 8.796875 -2.578125 9.445312 -2.703125 9.90625 -2.953125 C 10.375 -3.203125 10.609375 -3.5625 10.609375 -4.03125 C 10.609375 -4.382812 10.476562 -4.664062 10.21875 -4.875 C 9.957031 -5.082031 9.578125 -5.257812 9.078125 -5.40625 C 8.585938 -5.550781 7.988281 -5.691406 7.28125 -5.828125 C 6.570312 -5.992188 5.859375 -6.171875 5.140625 -6.359375 C 4.421875 -6.554688 3.753906 -6.820312 3.140625 -7.15625 C 2.535156 -7.5 2.046875 -7.941406 1.671875 -8.484375 C 1.304688 -9.023438 1.125 -9.71875 1.125 -10.5625 C 1.125 -11.46875 1.363281 -12.253906 1.84375 -12.921875 C 2.332031 -13.597656 3.046875 -14.128906 3.984375 -14.515625 C 4.929688 -14.898438 6.066406 -15.09375 7.390625 -15.09375 C 8.609375 -15.09375 9.671875 -14.925781 10.578125 -14.59375 C 11.492188 -14.269531 12.238281 -13.796875 12.8125 -13.171875 C 13.394531 -12.546875 13.78125 -11.796875 13.96875 -10.921875 L 10.703125 -9.890625 C 10.617188 -10.347656 10.4375 -10.75 10.15625 -11.09375 C 9.882812 -11.445312 9.507812 -11.707031 9.03125 -11.875 C 8.550781 -12.039062 7.992188 -12.125 7.359375 -12.125 C 6.578125 -12.125 5.96875 -11.992188 5.53125 -11.734375 C 5.09375 -11.472656 4.875 -11.128906 4.875 -10.703125 C 4.875 -10.335938 5.015625 -10.039062 5.296875 -9.8125 C 5.585938 -9.59375 5.988281 -9.414062 6.5 -9.28125 C 7.019531 -9.144531 7.632812 -9 8.34375 -8.84375 C 9.09375 -8.695312 9.816406 -8.523438 10.515625 -8.328125 C 11.210938 -8.128906 11.847656 -7.867188 12.421875 -7.546875 C 13.003906 -7.234375 13.46875 -6.816406 13.8125 -6.296875 C 14.164062 -5.773438 14.34375 -5.09375 14.34375 -4.25 C 14.34375 -3.28125 14.078125 -2.453125 13.546875 -1.765625 C 13.023438 -1.078125 12.269531 -0.546875 11.28125 -0.171875 C 10.289062 0.203125 9.097656 0.390625 7.703125 0.390625 Z M 7.703125 0.390625 "></path></g></g></g><g fill="#ffffff" fill-opacity="1"><g transform="translate(741.323154, 229.539506)"><g></g></g></g><g fill="#ffffff" fill-opacity="1"><g transform="translate(747.706302, 229.539506)"><g><path d="M 1.796875 0 L 1.796875 -14.703125 L 5.828125 -14.703125 L 5.828125 0 Z M 3.8125 -16.828125 C 3.019531 -16.828125 2.414062 -16.992188 2 -17.328125 C 1.582031 -17.671875 1.375 -18.148438 1.375 -18.765625 C 1.375 -19.421875 1.582031 -19.914062 2 -20.25 C 2.414062 -20.582031 3.019531 -20.75 3.8125 -20.75 C 4.613281 -20.75 5.222656 -20.582031 5.640625 -20.25 C 6.054688 -19.914062 6.265625 -19.421875 6.265625 -18.765625 C 6.265625 -18.148438 6.054688 -17.671875 5.640625 -17.328125 C 5.222656 -16.992188 4.613281 -16.828125 3.8125 -16.828125 Z M 3.8125 -16.828125 "></path></g></g></g><g fill="#ffffff" fill-opacity="1"><g transform="translate(755.321246, 229.539506)"><g><path d="M 1.796875 0 L 1.796875 -14.703125 L 5.09375 -14.703125 L 5.0625 -10.140625 L 5.59375 -10.140625 C 5.84375 -11.347656 6.203125 -12.3125 6.671875 -13.03125 C 7.148438 -13.75 7.726562 -14.269531 8.40625 -14.59375 C 9.09375 -14.925781 9.863281 -15.09375 10.71875 -15.09375 C 11.695312 -15.09375 12.5 -14.921875 13.125 -14.578125 C 13.75 -14.234375 14.242188 -13.78125 14.609375 -13.21875 C 14.984375 -12.65625 15.265625 -12.039062 15.453125 -11.375 C 15.640625 -10.71875 15.757812 -10.0625 15.8125 -9.40625 C 15.875 -8.75 15.90625 -8.160156 15.90625 -7.640625 L 15.90625 0 L 11.875 0 L 11.875 -7.171875 C 11.875 -7.523438 11.851562 -7.953125 11.8125 -8.453125 C 11.78125 -8.960938 11.679688 -9.460938 11.515625 -9.953125 C 11.359375 -10.453125 11.097656 -10.867188 10.734375 -11.203125 C 10.367188 -11.535156 9.863281 -11.703125 9.21875 -11.703125 C 8.46875 -11.703125 7.84375 -11.472656 7.34375 -11.015625 C 6.851562 -10.554688 6.476562 -9.9375 6.21875 -9.15625 C 5.957031 -8.375 5.828125 -7.5 5.828125 -6.53125 L 5.828125 0 Z M 1.796875 0 "></path></g></g></g><g fill="#ffffff" fill-opacity="1"><g transform="translate(772.762865, 229.539506)"><g><path d="M 7.28125 0.34375 C 6.476562 0.34375 5.773438 0.238281 5.171875 0.03125 C 4.578125 -0.175781 4.078125 -0.5 3.671875 -0.9375 C 3.273438 -1.375 2.972656 -1.9375 2.765625 -2.625 C 2.566406 -3.320312 2.46875 -4.144531 2.46875 -5.09375 L 2.46875 -11.53125 L 0.359375 -11.53125 L 0.453125 -14.640625 L 1.796875 -14.640625 C 2.410156 -14.660156 2.863281 -14.769531 3.15625 -14.96875 C 3.457031 -15.164062 3.640625 -15.515625 3.703125 -16.015625 L 4.03125 -17.96875 L 6.328125 -17.96875 L 6.328125 -14.703125 L 10.03125 -14.703125 L 10.03125 -11.421875 L 6.328125 -11.421875 L 6.328125 -5.296875 C 6.328125 -4.523438 6.515625 -4.007812 6.890625 -3.75 C 7.265625 -3.488281 7.722656 -3.359375 8.265625 -3.359375 C 8.597656 -3.359375 8.929688 -3.398438 9.265625 -3.484375 C 9.597656 -3.566406 9.890625 -3.6875 10.140625 -3.84375 L 10.140625 -0.078125 C 9.554688 0.0859375 9.019531 0.195312 8.53125 0.25 C 8.050781 0.3125 7.632812 0.34375 7.28125 0.34375 Z M 7.28125 0.34375 "></path></g></g></g><g fill="#ffffff" fill-opacity="1"><g transform="translate(783.653382, 229.539506)"><g><path d="M 8.484375 0.390625 C 7.003906 0.390625 5.703125 0.0976562 4.578125 -0.484375 C 3.460938 -1.078125 2.585938 -1.945312 1.953125 -3.09375 C 1.328125 -4.238281 1.015625 -5.671875 1.015625 -7.390625 C 1.015625 -9.109375 1.332031 -10.535156 1.96875 -11.671875 C 2.613281 -12.816406 3.492188 -13.671875 4.609375 -14.234375 C 5.734375 -14.804688 7.015625 -15.09375 8.453125 -15.09375 C 9.929688 -15.09375 11.226562 -14.800781 12.34375 -14.21875 C 13.46875 -13.644531 14.347656 -12.78125 14.984375 -11.625 C 15.628906 -10.476562 15.953125 -9.050781 15.953125 -7.34375 C 15.953125 -5.582031 15.625 -4.128906 14.96875 -2.984375 C 14.320312 -1.847656 13.425781 -1 12.28125 -0.4375 C 11.144531 0.113281 9.878906 0.390625 8.484375 0.390625 Z M 8.59375 -2.609375 C 9.039062 -2.609375 9.457031 -2.679688 9.84375 -2.828125 C 10.238281 -2.972656 10.59375 -3.21875 10.90625 -3.5625 C 11.21875 -3.914062 11.460938 -4.382812 11.640625 -4.96875 C 11.816406 -5.5625 11.90625 -6.273438 11.90625 -7.109375 C 11.90625 -8.003906 11.804688 -8.757812 11.609375 -9.375 C 11.410156 -9.988281 11.144531 -10.488281 10.8125 -10.875 C 10.488281 -11.257812 10.113281 -11.535156 9.6875 -11.703125 C 9.257812 -11.867188 8.8125 -11.953125 8.34375 -11.953125 C 7.914062 -11.953125 7.5 -11.878906 7.09375 -11.734375 C 6.695312 -11.585938 6.347656 -11.335938 6.046875 -10.984375 C 5.742188 -10.640625 5.5 -10.175781 5.3125 -9.59375 C 5.132812 -9.019531 5.046875 -8.304688 5.046875 -7.453125 C 5.046875 -6.554688 5.132812 -5.796875 5.3125 -5.171875 C 5.5 -4.554688 5.757812 -4.054688 6.09375 -3.671875 C 6.4375 -3.296875 6.820312 -3.023438 7.25 -2.859375 C 7.675781 -2.691406 8.125 -2.609375 8.59375 -2.609375 Z M 8.59375 -2.609375 "></path></g></g></g><g fill="#ffffff" fill-opacity="1"><g transform="translate(800.619064, 229.539506)"><g></g></g></g><g fill="#ffffff" fill-opacity="1"><g transform="translate(807.002212, 229.539506)"><g><path d="M 5.265625 0.390625 C 4.441406 0.390625 3.710938 0.234375 3.078125 -0.078125 C 2.441406 -0.398438 1.941406 -0.863281 1.578125 -1.46875 C 1.210938 -2.070312 1.03125 -2.816406 1.03125 -3.703125 C 1.03125 -4.722656 1.257812 -5.53125 1.71875 -6.125 C 2.175781 -6.726562 2.765625 -7.1875 3.484375 -7.5 C 4.203125 -7.820312 4.960938 -8.050781 5.765625 -8.1875 C 6.566406 -8.332031 7.316406 -8.453125 8.015625 -8.546875 C 8.640625 -8.640625 9.148438 -8.734375 9.546875 -8.828125 C 9.941406 -8.929688 10.226562 -9.082031 10.40625 -9.28125 C 10.582031 -9.476562 10.671875 -9.742188 10.671875 -10.078125 C 10.671875 -10.453125 10.582031 -10.78125 10.40625 -11.0625 C 10.238281 -11.34375 9.988281 -11.570312 9.65625 -11.75 C 9.320312 -11.925781 8.882812 -12.015625 8.34375 -12.015625 C 7.820312 -12.015625 7.328125 -11.921875 6.859375 -11.734375 C 6.390625 -11.546875 5.992188 -11.257812 5.671875 -10.875 C 5.347656 -10.488281 5.128906 -10.007812 5.015625 -9.4375 L 1.421875 -10.4375 C 1.628906 -11.238281 1.941406 -11.929688 2.359375 -12.515625 C 2.785156 -13.097656 3.296875 -13.578125 3.890625 -13.953125 C 4.484375 -14.335938 5.15625 -14.625 5.90625 -14.8125 C 6.65625 -15 7.46875 -15.09375 8.34375 -15.09375 C 9.476562 -15.09375 10.445312 -14.953125 11.25 -14.671875 C 12.050781 -14.390625 12.695312 -13.960938 13.1875 -13.390625 C 13.6875 -12.828125 14.050781 -12.140625 14.28125 -11.328125 C 14.519531 -10.515625 14.640625 -9.585938 14.640625 -8.546875 L 14.640625 -6.015625 C 14.640625 -5.378906 14.648438 -4.722656 14.671875 -4.046875 C 14.691406 -3.367188 14.722656 -2.691406 14.765625 -2.015625 C 14.816406 -1.347656 14.867188 -0.675781 14.921875 0 L 11.375 0 C 11.3125 -0.5 11.25 -1.050781 11.1875 -1.65625 C 11.125 -2.269531 11.082031 -2.894531 11.0625 -3.53125 L 10.578125 -3.53125 C 10.316406 -2.820312 9.941406 -2.160156 9.453125 -1.546875 C 8.972656 -0.941406 8.378906 -0.46875 7.671875 -0.125 C 6.960938 0.21875 6.160156 0.390625 5.265625 0.390625 Z M 6.96875 -2.546875 C 7.320312 -2.546875 7.679688 -2.601562 8.046875 -2.71875 C 8.410156 -2.84375 8.765625 -3.023438 9.109375 -3.265625 C 9.453125 -3.515625 9.769531 -3.828125 10.0625 -4.203125 C 10.351562 -4.578125 10.582031 -4.992188 10.75 -5.453125 L 10.703125 -7.671875 L 11.34375 -7.5625 C 11.019531 -7.320312 10.640625 -7.128906 10.203125 -6.984375 C 9.765625 -6.847656 9.304688 -6.738281 8.828125 -6.65625 C 8.359375 -6.582031 7.890625 -6.5 7.421875 -6.40625 C 6.953125 -6.3125 6.53125 -6.191406 6.15625 -6.046875 C 5.78125 -5.898438 5.476562 -5.695312 5.25 -5.4375 C 5.03125 -5.175781 4.921875 -4.820312 4.921875 -4.375 C 4.921875 -3.8125 5.113281 -3.363281 5.5 -3.03125 C 5.882812 -2.707031 6.375 -2.546875 6.96875 -2.546875 Z M 6.96875 -2.546875 "></path></g></g></g><g fill="#ffffff" fill-opacity="1"><g transform="translate(823.267973, 229.539506)"><g></g></g></g><g fill="#ffffff" fill-opacity="1"><g transform="translate(829.651075, 229.539506)"><g><path d="M 1.796875 4.640625 L 1.796875 -14.703125 L 5.15625 -14.703125 L 5.15625 -10.578125 L 5.625 -10.53125 C 5.8125 -11.539062 6.113281 -12.382812 6.53125 -13.0625 C 6.957031 -13.738281 7.5 -14.242188 8.15625 -14.578125 C 8.820312 -14.921875 9.601562 -15.09375 10.5 -15.09375 C 11.789062 -15.09375 12.890625 -14.773438 13.796875 -14.140625 C 14.710938 -13.503906 15.414062 -12.601562 15.90625 -11.4375 C 16.40625 -10.269531 16.65625 -8.882812 16.65625 -7.28125 C 16.65625 -5.789062 16.429688 -4.46875 15.984375 -3.3125 C 15.535156 -2.164062 14.875 -1.257812 14 -0.59375 C 13.125 0.0625 12.03125 0.390625 10.71875 0.390625 C 9.789062 0.390625 9.003906 0.210938 8.359375 -0.140625 C 7.710938 -0.492188 7.175781 -1 6.75 -1.65625 C 6.320312 -2.320312 5.976562 -3.113281 5.71875 -4.03125 L 5.203125 -4.03125 C 5.316406 -3.507812 5.421875 -2.984375 5.515625 -2.453125 C 5.609375 -1.921875 5.679688 -1.398438 5.734375 -0.890625 C 5.796875 -0.390625 5.828125 0.09375 5.828125 0.5625 L 5.828125 4.640625 Z M 9.328125 -2.859375 C 9.972656 -2.859375 10.53125 -3.039062 11 -3.40625 C 11.46875 -3.78125 11.828125 -4.300781 12.078125 -4.96875 C 12.328125 -5.632812 12.453125 -6.394531 12.453125 -7.25 C 12.453125 -8.1875 12.320312 -8.984375 12.0625 -9.640625 C 11.800781 -10.304688 11.425781 -10.820312 10.9375 -11.1875 C 10.457031 -11.550781 9.890625 -11.734375 9.234375 -11.734375 C 8.640625 -11.734375 8.128906 -11.601562 7.703125 -11.34375 C 7.285156 -11.09375 6.929688 -10.753906 6.640625 -10.328125 C 6.359375 -9.898438 6.148438 -9.441406 6.015625 -8.953125 C 5.890625 -8.472656 5.828125 -8 5.828125 -7.53125 L 5.828125 -7.03125 C 5.828125 -6.632812 5.875 -6.242188 5.96875 -5.859375 C 6.0625 -5.484375 6.203125 -5.117188 6.390625 -4.765625 C 6.585938 -4.410156 6.828125 -4.085938 7.109375 -3.796875 C 7.390625 -3.503906 7.71875 -3.273438 8.09375 -3.109375 C 8.46875 -2.941406 8.878906 -2.859375 9.328125 -2.859375 Z M 9.328125 -2.859375 "></path></g></g></g><g fill="#ffffff" fill-opacity="1"><g transform="translate(847.344693, 229.539506)"><g><path d="M 1.796875 0 L 1.796875 -14.703125 L 5.15625 -14.703125 L 5.125 -9.609375 L 5.65625 -9.609375 C 5.800781 -10.878906 6.050781 -11.914062 6.40625 -12.71875 C 6.757812 -13.519531 7.257812 -14.101562 7.90625 -14.46875 C 8.550781 -14.84375 9.347656 -15.03125 10.296875 -15.03125 C 10.484375 -15.03125 10.679688 -15.019531 10.890625 -15 C 11.097656 -14.988281 11.332031 -14.953125 11.59375 -14.890625 L 11.453125 -10.609375 C 11.128906 -10.742188 10.804688 -10.835938 10.484375 -10.890625 C 10.160156 -10.941406 9.859375 -10.96875 9.578125 -10.96875 C 8.867188 -10.96875 8.25 -10.800781 7.71875 -10.46875 C 7.195312 -10.132812 6.78125 -9.648438 6.46875 -9.015625 C 6.164062 -8.378906 5.953125 -7.59375 5.828125 -6.65625 L 5.828125 0 Z M 1.796875 0 "></path></g></g></g><g fill="#ffffff" fill-opacity="1"><g transform="translate(859.271038, 229.539506)"><g><path d="M 8.484375 0.390625 C 7.003906 0.390625 5.703125 0.0976562 4.578125 -0.484375 C 3.460938 -1.078125 2.585938 -1.945312 1.953125 -3.09375 C 1.328125 -4.238281 1.015625 -5.671875 1.015625 -7.390625 C 1.015625 -9.109375 1.332031 -10.535156 1.96875 -11.671875 C 2.613281 -12.816406 3.492188 -13.671875 4.609375 -14.234375 C 5.734375 -14.804688 7.015625 -15.09375 8.453125 -15.09375 C 9.929688 -15.09375 11.226562 -14.800781 12.34375 -14.21875 C 13.46875 -13.644531 14.347656 -12.78125 14.984375 -11.625 C 15.628906 -10.476562 15.953125 -9.050781 15.953125 -7.34375 C 15.953125 -5.582031 15.625 -4.128906 14.96875 -2.984375 C 14.320312 -1.847656 13.425781 -1 12.28125 -0.4375 C 11.144531 0.113281 9.878906 0.390625 8.484375 0.390625 Z M 8.59375 -2.609375 C 9.039062 -2.609375 9.457031 -2.679688 9.84375 -2.828125 C 10.238281 -2.972656 10.59375 -3.21875 10.90625 -3.5625 C 11.21875 -3.914062 11.460938 -4.382812 11.640625 -4.96875 C 11.816406 -5.5625 11.90625 -6.273438 11.90625 -7.109375 C 11.90625 -8.003906 11.804688 -8.757812 11.609375 -9.375 C 11.410156 -9.988281 11.144531 -10.488281 10.8125 -10.875 C 10.488281 -11.257812 10.113281 -11.535156 9.6875 -11.703125 C 9.257812 -11.867188 8.8125 -11.953125 8.34375 -11.953125 C 7.914062 -11.953125 7.5 -11.878906 7.09375 -11.734375 C 6.695312 -11.585938 6.347656 -11.335938 6.046875 -10.984375 C 5.742188 -10.640625 5.5 -10.175781 5.3125 -9.59375 C 5.132812 -9.019531 5.046875 -8.304688 5.046875 -7.453125 C 5.046875 -6.554688 5.132812 -5.796875 5.3125 -5.171875 C 5.5 -4.554688 5.757812 -4.054688 6.09375 -3.671875 C 6.4375 -3.296875 6.820312 -3.023438 7.25 -2.859375 C 7.675781 -2.691406 8.125 -2.609375 8.59375 -2.609375 Z M 8.59375 -2.609375 "></path></g></g></g><g fill="#ffffff" fill-opacity="1"><g transform="translate(876.23672, 229.539506)"><g><path d="M 7.109375 0.390625 C 5.898438 0.390625 4.835938 0.078125 3.921875 -0.546875 C 3.003906 -1.171875 2.289062 -2.066406 1.78125 -3.234375 C 1.28125 -4.398438 1.03125 -5.785156 1.03125 -7.390625 C 1.03125 -8.878906 1.253906 -10.203125 1.703125 -11.359375 C 2.148438 -12.523438 2.8125 -13.429688 3.6875 -14.078125 C 4.570312 -14.734375 5.65625 -15.0625 6.9375 -15.0625 C 7.894531 -15.0625 8.691406 -14.878906 9.328125 -14.515625 C 9.972656 -14.148438 10.503906 -13.625 10.921875 -12.9375 C 11.347656 -12.25 11.679688 -11.414062 11.921875 -10.4375 L 12.546875 -10.4375 C 12.429688 -11.039062 12.320312 -11.628906 12.21875 -12.203125 C 12.113281 -12.785156 12.03125 -13.335938 11.96875 -13.859375 C 11.90625 -14.378906 11.875 -14.835938 11.875 -15.234375 L 11.875 -19.96875 L 15.9375 -19.96875 L 15.9375 0 L 12.546875 0 L 12.546875 -4.28125 L 12.015625 -4.28125 C 11.804688 -3.238281 11.488281 -2.367188 11.0625 -1.671875 C 10.632812 -0.984375 10.09375 -0.46875 9.4375 -0.125 C 8.78125 0.21875 8.003906 0.390625 7.109375 0.390625 Z M 8.484375 -2.90625 C 9.066406 -2.90625 9.570312 -3.035156 10 -3.296875 C 10.425781 -3.566406 10.78125 -3.910156 11.0625 -4.328125 C 11.34375 -4.742188 11.546875 -5.191406 11.671875 -5.671875 C 11.804688 -6.160156 11.875 -6.628906 11.875 -7.078125 L 11.875 -7.59375 C 11.875 -7.957031 11.828125 -8.335938 11.734375 -8.734375 C 11.640625 -9.128906 11.5 -9.507812 11.3125 -9.875 C 11.125 -10.238281 10.890625 -10.5625 10.609375 -10.84375 C 10.328125 -11.132812 10 -11.363281 9.625 -11.53125 C 9.257812 -11.695312 8.859375 -11.78125 8.421875 -11.78125 C 7.753906 -11.78125 7.1875 -11.59375 6.71875 -11.21875 C 6.25 -10.851562 5.890625 -10.335938 5.640625 -9.671875 C 5.390625 -9.015625 5.265625 -8.238281 5.265625 -7.34375 C 5.265625 -6.457031 5.394531 -5.675781 5.65625 -5 C 5.914062 -4.332031 6.285156 -3.816406 6.765625 -3.453125 C 7.253906 -3.085938 7.828125 -2.90625 8.484375 -2.90625 Z M 8.484375 -2.90625 "></path></g></g></g><g fill="#ffffff" fill-opacity="1"><g transform="translate(893.958307, 229.539506)"><g><path d="M 6.71875 0.390625 C 5.988281 0.390625 5.34375 0.285156 4.78125 0.078125 C 4.226562 -0.117188 3.75 -0.414062 3.34375 -0.8125 C 2.945312 -1.21875 2.613281 -1.707031 2.34375 -2.28125 C 2.082031 -2.851562 1.882812 -3.503906 1.75 -4.234375 C 1.625 -4.972656 1.5625 -5.789062 1.5625 -6.6875 L 1.5625 -14.703125 L 5.625 -14.703125 L 5.625 -7.59375 C 5.625 -7.175781 5.640625 -6.707031 5.671875 -6.1875 C 5.703125 -5.664062 5.796875 -5.15625 5.953125 -4.65625 C 6.109375 -4.164062 6.363281 -3.757812 6.71875 -3.4375 C 7.070312 -3.125 7.566406 -2.96875 8.203125 -2.96875 C 8.722656 -2.96875 9.175781 -3.09375 9.5625 -3.34375 C 9.945312 -3.59375 10.273438 -3.957031 10.546875 -4.4375 C 10.828125 -4.914062 11.035156 -5.472656 11.171875 -6.109375 C 11.316406 -6.753906 11.398438 -7.460938 11.421875 -8.234375 L 11.421875 -14.703125 L 15.453125 -14.703125 L 15.453125 0 L 12.1875 0 L 12.1875 -4.703125 L 11.671875 -4.703125 C 11.429688 -3.503906 11.097656 -2.53125 10.671875 -1.78125 C 10.242188 -1.039062 9.707031 -0.492188 9.0625 -0.140625 C 8.414062 0.210938 7.632812 0.390625 6.71875 0.390625 Z M 6.71875 0.390625 "></path></g></g></g><g fill="#ffffff" fill-opacity="1"><g transform="translate(911.203957, 229.539506)"><g><path d="M 8.59375 0.390625 C 7.320312 0.390625 6.210938 0.203125 5.265625 -0.171875 C 4.316406 -0.546875 3.523438 -1.066406 2.890625 -1.734375 C 2.265625 -2.410156 1.796875 -3.207031 1.484375 -4.125 C 1.171875 -5.050781 1.015625 -6.066406 1.015625 -7.171875 C 1.015625 -8.328125 1.171875 -9.382812 1.484375 -10.34375 C 1.796875 -11.300781 2.269531 -12.132812 2.90625 -12.84375 C 3.539062 -13.5625 4.320312 -14.113281 5.25 -14.5 C 6.1875 -14.894531 7.253906 -15.09375 8.453125 -15.09375 C 9.367188 -15.09375 10.191406 -14.972656 10.921875 -14.734375 C 11.648438 -14.503906 12.285156 -14.175781 12.828125 -13.75 C 13.367188 -13.332031 13.8125 -12.832031 14.15625 -12.25 C 14.5 -11.664062 14.726562 -11.007812 14.84375 -10.28125 L 11.140625 -9.15625 C 11.085938 -9.75 10.929688 -10.253906 10.671875 -10.671875 C 10.421875 -11.097656 10.09375 -11.410156 9.6875 -11.609375 C 9.28125 -11.816406 8.804688 -11.921875 8.265625 -11.921875 C 7.816406 -11.921875 7.398438 -11.832031 7.015625 -11.65625 C 6.628906 -11.476562 6.289062 -11.207031 6 -10.84375 C 5.71875 -10.476562 5.488281 -10.003906 5.3125 -9.421875 C 5.144531 -8.847656 5.0625 -8.15625 5.0625 -7.34375 C 5.0625 -6.238281 5.207031 -5.335938 5.5 -4.640625 C 5.789062 -3.953125 6.207031 -3.441406 6.75 -3.109375 C 7.289062 -2.785156 7.925781 -2.625 8.65625 -2.625 C 9.382812 -2.625 9.96875 -2.773438 10.40625 -3.078125 C 10.84375 -3.378906 11.164062 -3.757812 11.375 -4.21875 C 11.59375 -4.675781 11.722656 -5.15625 11.765625 -5.65625 L 15.3125 -4.90625 C 15.238281 -4.175781 15.050781 -3.488281 14.75 -2.84375 C 14.457031 -2.195312 14.035156 -1.628906 13.484375 -1.140625 C 12.929688 -0.660156 12.25 -0.285156 11.4375 -0.015625 C 10.625 0.253906 9.675781 0.390625 8.59375 0.390625 Z M 8.59375 0.390625 "></path></g></g></g><g fill="#ffffff" fill-opacity="1"><g transform="translate(926.965812, 229.539506)"><g><path d="M 7.28125 0.34375 C 6.476562 0.34375 5.773438 0.238281 5.171875 0.03125 C 4.578125 -0.175781 4.078125 -0.5 3.671875 -0.9375 C 3.273438 -1.375 2.972656 -1.9375 2.765625 -2.625 C 2.566406 -3.320312 2.46875 -4.144531 2.46875 -5.09375 L 2.46875 -11.53125 L 0.359375 -11.53125 L 0.453125 -14.640625 L 1.796875 -14.640625 C 2.410156 -14.660156 2.863281 -14.769531 3.15625 -14.96875 C 3.457031 -15.164062 3.640625 -15.515625 3.703125 -16.015625 L 4.03125 -17.96875 L 6.328125 -17.96875 L 6.328125 -14.703125 L 10.03125 -14.703125 L 10.03125 -11.421875 L 6.328125 -11.421875 L 6.328125 -5.296875 C 6.328125 -4.523438 6.515625 -4.007812 6.890625 -3.75 C 7.265625 -3.488281 7.722656 -3.359375 8.265625 -3.359375 C 8.597656 -3.359375 8.929688 -3.398438 9.265625 -3.484375 C 9.597656 -3.566406 9.890625 -3.6875 10.140625 -3.84375 L 10.140625 -0.078125 C 9.554688 0.0859375 9.019531 0.195312 8.53125 0.25 C 8.050781 0.3125 7.632812 0.34375 7.28125 0.34375 Z M 7.28125 0.34375 "></path></g></g></g><g fill="#ffffff" fill-opacity="1"><g transform="translate(937.996314, 229.539506)"><g><path d="M 1.796875 0 L 1.796875 -14.703125 L 5.828125 -14.703125 L 5.828125 0 Z M 3.8125 -16.828125 C 3.019531 -16.828125 2.414062 -16.992188 2 -17.328125 C 1.582031 -17.671875 1.375 -18.148438 1.375 -18.765625 C 1.375 -19.421875 1.582031 -19.914062 2 -20.25 C 2.414062 -20.582031 3.019531 -20.75 3.8125 -20.75 C 4.613281 -20.75 5.222656 -20.582031 5.640625 -20.25 C 6.054688 -19.914062 6.265625 -19.421875 6.265625 -18.765625 C 6.265625 -18.148438 6.054688 -17.671875 5.640625 -17.328125 C 5.222656 -16.992188 4.613281 -16.828125 3.8125 -16.828125 Z M 3.8125 -16.828125 "></path></g></g></g><g fill="#ffffff" fill-opacity="1"><g transform="translate(945.611304, 229.539506)"><g><path d="M 8.484375 0.390625 C 7.003906 0.390625 5.703125 0.0976562 4.578125 -0.484375 C 3.460938 -1.078125 2.585938 -1.945312 1.953125 -3.09375 C 1.328125 -4.238281 1.015625 -5.671875 1.015625 -7.390625 C 1.015625 -9.109375 1.332031 -10.535156 1.96875 -11.671875 C 2.613281 -12.816406 3.492188 -13.671875 4.609375 -14.234375 C 5.734375 -14.804688 7.015625 -15.09375 8.453125 -15.09375 C 9.929688 -15.09375 11.226562 -14.800781 12.34375 -14.21875 C 13.46875 -13.644531 14.347656 -12.78125 14.984375 -11.625 C 15.628906 -10.476562 15.953125 -9.050781 15.953125 -7.34375 C 15.953125 -5.582031 15.625 -4.128906 14.96875 -2.984375 C 14.320312 -1.847656 13.425781 -1 12.28125 -0.4375 C 11.144531 0.113281 9.878906 0.390625 8.484375 0.390625 Z M 8.59375 -2.609375 C 9.039062 -2.609375 9.457031 -2.679688 9.84375 -2.828125 C 10.238281 -2.972656 10.59375 -3.21875 10.90625 -3.5625 C 11.21875 -3.914062 11.460938 -4.382812 11.640625 -4.96875 C 11.816406 -5.5625 11.90625 -6.273438 11.90625 -7.109375 C 11.90625 -8.003906 11.804688 -8.757812 11.609375 -9.375 C 11.410156 -9.988281 11.144531 -10.488281 10.8125 -10.875 C 10.488281 -11.257812 10.113281 -11.535156 9.6875 -11.703125 C 9.257812 -11.867188 8.8125 -11.953125 8.34375 -11.953125 C 7.914062 -11.953125 7.5 -11.878906 7.09375 -11.734375 C 6.695312 -11.585938 6.347656 -11.335938 6.046875 -10.984375 C 5.742188 -10.640625 5.5 -10.175781 5.3125 -9.59375 C 5.132812 -9.019531 5.046875 -8.304688 5.046875 -7.453125 C 5.046875 -6.554688 5.132812 -5.796875 5.3125 -5.171875 C 5.5 -4.554688 5.757812 -4.054688 6.09375 -3.671875 C 6.4375 -3.296875 6.820312 -3.023438 7.25 -2.859375 C 7.675781 -2.691406 8.125 -2.609375 8.59375 -2.609375 Z M 8.59375 -2.609375 "></path></g></g></g><g fill="#ffffff" fill-opacity="1"><g transform="translate(962.57694, 229.539506)"><g><path d="M 1.796875 0 L 1.796875 -14.703125 L 5.09375 -14.703125 L 5.0625 -10.140625 L 5.59375 -10.140625 C 5.84375 -11.347656 6.203125 -12.3125 6.671875 -13.03125 C 7.148438 -13.75 7.726562 -14.269531 8.40625 -14.59375 C 9.09375 -14.925781 9.863281 -15.09375 10.71875 -15.09375 C 11.695312 -15.09375 12.5 -14.921875 13.125 -14.578125 C 13.75 -14.234375 14.242188 -13.78125 14.609375 -13.21875 C 14.984375 -12.65625 15.265625 -12.039062 15.453125 -11.375 C 15.640625 -10.71875 15.757812 -10.0625 15.8125 -9.40625 C 15.875 -8.75 15.90625 -8.160156 15.90625 -7.640625 L 15.90625 0 L 11.875 0 L 11.875 -7.171875 C 11.875 -7.523438 11.851562 -7.953125 11.8125 -8.453125 C 11.78125 -8.960938 11.679688 -9.460938 11.515625 -9.953125 C 11.359375 -10.453125 11.097656 -10.867188 10.734375 -11.203125 C 10.367188 -11.535156 9.863281 -11.703125 9.21875 -11.703125 C 8.46875 -11.703125 7.84375 -11.472656 7.34375 -11.015625 C 6.851562 -10.554688 6.476562 -9.9375 6.21875 -9.15625 C 5.957031 -8.375 5.828125 -7.5 5.828125 -6.53125 L 5.828125 0 Z M 1.796875 0 "></path></g></g></g><g fill="#ffffff" fill-opacity="1"><g transform="translate(980.214573, 229.539506)"><g><path d="M 0.8125 -5.625 L 0.8125 -9.265625 L 8.9375 -9.265625 L 8.9375 -5.625 Z M 0.8125 -5.625 "></path></g></g></g><g fill="#ffffff" fill-opacity="1"><g transform="translate(989.957249, 229.539506)"><g><path d="M 1.796875 0 L 1.796875 -14.703125 L 5.15625 -14.703125 L 5.125 -9.609375 L 5.65625 -9.609375 C 5.800781 -10.878906 6.050781 -11.914062 6.40625 -12.71875 C 6.757812 -13.519531 7.257812 -14.101562 7.90625 -14.46875 C 8.550781 -14.84375 9.347656 -15.03125 10.296875 -15.03125 C 10.484375 -15.03125 10.679688 -15.019531 10.890625 -15 C 11.097656 -14.988281 11.332031 -14.953125 11.59375 -14.890625 L 11.453125 -10.609375 C 11.128906 -10.742188 10.804688 -10.835938 10.484375 -10.890625 C 10.160156 -10.941406 9.859375 -10.96875 9.578125 -10.96875 C 8.867188 -10.96875 8.25 -10.800781 7.71875 -10.46875 C 7.195312 -10.132812 6.78125 -9.648438 6.46875 -9.015625 C 6.164062 -8.378906 5.953125 -7.59375 5.828125 -6.65625 L 5.828125 0 Z M 1.796875 0 "></path></g></g></g><g fill="#ffffff" fill-opacity="1"><g transform="translate(1001.883594, 229.539506)"><g><path d="M 8.625 0.390625 C 7.40625 0.390625 6.320312 0.222656 5.375 -0.109375 C 4.4375 -0.441406 3.640625 -0.929688 2.984375 -1.578125 C 2.335938 -2.222656 1.847656 -3.003906 1.515625 -3.921875 C 1.179688 -4.847656 1.015625 -5.898438 1.015625 -7.078125 C 1.015625 -8.234375 1.175781 -9.300781 1.5 -10.28125 C 1.820312 -11.269531 2.296875 -12.125 2.921875 -12.84375 C 3.546875 -13.5625 4.316406 -14.113281 5.234375 -14.5 C 6.148438 -14.894531 7.1875 -15.09375 8.34375 -15.09375 C 9.476562 -15.09375 10.476562 -14.90625 11.34375 -14.53125 C 12.21875 -14.15625 12.941406 -13.601562 13.515625 -12.875 C 14.097656 -12.144531 14.523438 -11.257812 14.796875 -10.21875 C 15.066406 -9.175781 15.15625 -7.972656 15.0625 -6.609375 L 3.609375 -6.53125 L 3.609375 -8.734375 L 12.6875 -8.8125 L 11.34375 -7.671875 C 11.46875 -8.660156 11.40625 -9.472656 11.15625 -10.109375 C 10.90625 -10.742188 10.53125 -11.207031 10.03125 -11.5 C 9.539062 -11.800781 8.988281 -11.953125 8.375 -11.953125 C 7.664062 -11.953125 7.046875 -11.765625 6.515625 -11.390625 C 5.984375 -11.023438 5.570312 -10.484375 5.28125 -9.765625 C 4.988281 -9.046875 4.84375 -8.179688 4.84375 -7.171875 C 4.84375 -5.578125 5.1875 -4.410156 5.875 -3.671875 C 6.570312 -2.941406 7.488281 -2.578125 8.625 -2.578125 C 9.144531 -2.578125 9.585938 -2.644531 9.953125 -2.78125 C 10.316406 -2.925781 10.613281 -3.109375 10.84375 -3.328125 C 11.082031 -3.554688 11.265625 -3.8125 11.390625 -4.09375 C 11.523438 -4.375 11.628906 -4.660156 11.703125 -4.953125 L 15.234375 -4.234375 C 15.097656 -3.535156 14.867188 -2.90625 14.546875 -2.34375 C 14.222656 -1.789062 13.789062 -1.304688 13.25 -0.890625 C 12.71875 -0.484375 12.066406 -0.171875 11.296875 0.046875 C 10.535156 0.273438 9.644531 0.390625 8.625 0.390625 Z M 8.625 0.390625 "></path></g></g></g><g fill="#ffffff" fill-opacity="1"><g transform="translate(1018.065401, 229.539506)"><g><path d="M 5.265625 0.390625 C 4.441406 0.390625 3.710938 0.234375 3.078125 -0.078125 C 2.441406 -0.398438 1.941406 -0.863281 1.578125 -1.46875 C 1.210938 -2.070312 1.03125 -2.816406 1.03125 -3.703125 C 1.03125 -4.722656 1.257812 -5.53125 1.71875 -6.125 C 2.175781 -6.726562 2.765625 -7.1875 3.484375 -7.5 C 4.203125 -7.820312 4.960938 -8.050781 5.765625 -8.1875 C 6.566406 -8.332031 7.316406 -8.453125 8.015625 -8.546875 C 8.640625 -8.640625 9.148438 -8.734375 9.546875 -8.828125 C 9.941406 -8.929688 10.226562 -9.082031 10.40625 -9.28125 C 10.582031 -9.476562 10.671875 -9.742188 10.671875 -10.078125 C 10.671875 -10.453125 10.582031 -10.78125 10.40625 -11.0625 C 10.238281 -11.34375 9.988281 -11.570312 9.65625 -11.75 C 9.320312 -11.925781 8.882812 -12.015625 8.34375 -12.015625 C 7.820312 -12.015625 7.328125 -11.921875 6.859375 -11.734375 C 6.390625 -11.546875 5.992188 -11.257812 5.671875 -10.875 C 5.347656 -10.488281 5.128906 -10.007812 5.015625 -9.4375 L 1.421875 -10.4375 C 1.628906 -11.238281 1.941406 -11.929688 2.359375 -12.515625 C 2.785156 -13.097656 3.296875 -13.578125 3.890625 -13.953125 C 4.484375 -14.335938 5.15625 -14.625 5.90625 -14.8125 C 6.65625 -15 7.46875 -15.09375 8.34375 -15.09375 C 9.476562 -15.09375 10.445312 -14.953125 11.25 -14.671875 C 12.050781 -14.390625 12.695312 -13.960938 13.1875 -13.390625 C 13.6875 -12.828125 14.050781 -12.140625 14.28125 -11.328125 C 14.519531 -10.515625 14.640625 -9.585938 14.640625 -8.546875 L 14.640625 -6.015625 C 14.640625 -5.378906 14.648438 -4.722656 14.671875 -4.046875 C 14.691406 -3.367188 14.722656 -2.691406 14.765625 -2.015625 C 14.816406 -1.347656 14.867188 -0.675781 14.921875 0 L 11.375 0 C 11.3125 -0.5 11.25 -1.050781 11.1875 -1.65625 C 11.125 -2.269531 11.082031 -2.894531 11.0625 -3.53125 L 10.578125 -3.53125 C 10.316406 -2.820312 9.941406 -2.160156 9.453125 -1.546875 C 8.972656 -0.941406 8.378906 -0.46875 7.671875 -0.125 C 6.960938 0.21875 6.160156 0.390625 5.265625 0.390625 Z M 6.96875 -2.546875 C 7.320312 -2.546875 7.679688 -2.601562 8.046875 -2.71875 C 8.410156 -2.84375 8.765625 -3.023438 9.109375 -3.265625 C 9.453125 -3.515625 9.769531 -3.828125 10.0625 -4.203125 C 10.351562 -4.578125 10.582031 -4.992188 10.75 -5.453125 L 10.703125 -7.671875 L 11.34375 -7.5625 C 11.019531 -7.320312 10.640625 -7.128906 10.203125 -6.984375 C 9.765625 -6.847656 9.304688 -6.738281 8.828125 -6.65625 C 8.359375 -6.582031 7.890625 -6.5 7.421875 -6.40625 C 6.953125 -6.3125 6.53125 -6.191406 6.15625 -6.046875 C 5.78125 -5.898438 5.476562 -5.695312 5.25 -5.4375 C 5.03125 -5.175781 4.921875 -4.820312 4.921875 -4.375 C 4.921875 -3.8125 5.113281 -3.363281 5.5 -3.03125 C 5.882812 -2.707031 6.375 -2.546875 6.96875 -2.546875 Z M 6.96875 -2.546875 "></path></g></g></g><g fill="#ffffff" fill-opacity="1"><g transform="translate(1034.387147, 229.539506)"><g><path d="M 7.109375 0.390625 C 5.898438 0.390625 4.835938 0.078125 3.921875 -0.546875 C 3.003906 -1.171875 2.289062 -2.066406 1.78125 -3.234375 C 1.28125 -4.398438 1.03125 -5.785156 1.03125 -7.390625 C 1.03125 -8.878906 1.253906 -10.203125 1.703125 -11.359375 C 2.148438 -12.523438 2.8125 -13.429688 3.6875 -14.078125 C 4.570312 -14.734375 5.65625 -15.0625 6.9375 -15.0625 C 7.894531 -15.0625 8.691406 -14.878906 9.328125 -14.515625 C 9.972656 -14.148438 10.503906 -13.625 10.921875 -12.9375 C 11.347656 -12.25 11.679688 -11.414062 11.921875 -10.4375 L 12.546875 -10.4375 C 12.429688 -11.039062 12.320312 -11.628906 12.21875 -12.203125 C 12.113281 -12.785156 12.03125 -13.335938 11.96875 -13.859375 C 11.90625 -14.378906 11.875 -14.835938 11.875 -15.234375 L 11.875 -19.96875 L 15.9375 -19.96875 L 15.9375 0 L 12.546875 0 L 12.546875 -4.28125 L 12.015625 -4.28125 C 11.804688 -3.238281 11.488281 -2.367188 11.0625 -1.671875 C 10.632812 -0.984375 10.09375 -0.46875 9.4375 -0.125 C 8.78125 0.21875 8.003906 0.390625 7.109375 0.390625 Z M 8.484375 -2.90625 C 9.066406 -2.90625 9.570312 -3.035156 10 -3.296875 C 10.425781 -3.566406 10.78125 -3.910156 11.0625 -4.328125 C 11.34375 -4.742188 11.546875 -5.191406 11.671875 -5.671875 C 11.804688 -6.160156 11.875 -6.628906 11.875 -7.078125 L 11.875 -7.59375 C 11.875 -7.957031 11.828125 -8.335938 11.734375 -8.734375 C 11.640625 -9.128906 11.5 -9.507812 11.3125 -9.875 C 11.125 -10.238281 10.890625 -10.5625 10.609375 -10.84375 C 10.328125 -11.132812 10 -11.363281 9.625 -11.53125 C 9.257812 -11.695312 8.859375 -11.78125 8.421875 -11.78125 C 7.753906 -11.78125 7.1875 -11.59375 6.71875 -11.21875 C 6.25 -10.851562 5.890625 -10.335938 5.640625 -9.671875 C 5.390625 -9.015625 5.265625 -8.238281 5.265625 -7.34375 C 5.265625 -6.457031 5.394531 -5.675781 5.65625 -5 C 5.914062 -4.332031 6.285156 -3.816406 6.765625 -3.453125 C 7.253906 -3.085938 7.828125 -2.90625 8.484375 -2.90625 Z M 8.484375 -2.90625 "></path></g></g></g><g fill="#ffffff" fill-opacity="1"><g transform="translate(1052.02478, 229.539506)"><g><path d="M 7.34375 5.015625 C 6.59375 5.015625 5.832031 4.945312 5.0625 4.8125 C 4.300781 4.6875 3.578125 4.484375 2.890625 4.203125 C 2.210938 3.921875 1.640625 3.554688 1.171875 3.109375 L 2.296875 -0.390625 C 2.890625 0.242188 3.628906 0.707031 4.515625 1 C 5.410156 1.300781 6.285156 1.453125 7.140625 1.453125 C 8.054688 1.453125 8.804688 1.296875 9.390625 0.984375 C 9.984375 0.679688 10.441406 0.265625 10.765625 -0.265625 C 11.085938 -0.796875 11.320312 -1.410156 11.46875 -2.109375 C 11.625 -2.804688 11.710938 -3.550781 11.734375 -4.34375 L 11.875 -6.640625 L 11.28125 -6.640625 C 11.113281 -5.390625 10.816406 -4.367188 10.390625 -3.578125 C 9.972656 -2.796875 9.441406 -2.222656 8.796875 -1.859375 C 8.160156 -1.492188 7.40625 -1.3125 6.53125 -1.3125 C 5.570312 -1.3125 4.78125 -1.503906 4.15625 -1.890625 C 3.53125 -2.273438 3.050781 -2.769531 2.71875 -3.375 C 2.382812 -3.976562 2.132812 -4.613281 1.96875 -5.28125 C 1.8125 -5.957031 1.71875 -6.59375 1.6875 -7.1875 C 1.664062 -7.789062 1.65625 -8.257812 1.65625 -8.59375 L 1.65625 -14.703125 L 5.6875 -14.703125 L 5.6875 -9.75 C 5.6875 -9.375 5.691406 -8.957031 5.703125 -8.5 C 5.722656 -8.039062 5.765625 -7.585938 5.828125 -7.140625 C 5.898438 -6.691406 6.023438 -6.273438 6.203125 -5.890625 C 6.378906 -5.503906 6.613281 -5.195312 6.90625 -4.96875 C 7.207031 -4.75 7.59375 -4.640625 8.0625 -4.640625 C 8.675781 -4.640625 9.164062 -4.828125 9.53125 -5.203125 C 9.894531 -5.578125 10.179688 -6.046875 10.390625 -6.609375 C 10.597656 -7.171875 10.738281 -7.75 10.8125 -8.34375 C 10.882812 -8.9375 10.929688 -9.453125 10.953125 -9.890625 L 10.953125 -14.703125 L 14.984375 -14.703125 L 14.984375 -4.171875 C 14.984375 -3.648438 14.953125 -3.066406 14.890625 -2.421875 C 14.835938 -1.773438 14.734375 -1.109375 14.578125 -0.421875 C 14.421875 0.265625 14.164062 0.929688 13.8125 1.578125 C 13.46875 2.222656 13.015625 2.804688 12.453125 3.328125 C 11.898438 3.847656 11.203125 4.257812 10.359375 4.5625 C 9.515625 4.863281 8.507812 5.015625 7.34375 5.015625 Z M 7.34375 5.015625 "></path></g></g></g><g fill="#ffffff" fill-opacity="1"><g transform="translate(1068.738463, 229.539506)"><g></g></g></g><g fill="#ffffff" fill-opacity="1"><g transform="translate(1075.121611, 229.539506)"><g><path d="M 1.796875 0 L 1.796875 -14.703125 L 5.15625 -14.703125 L 5.125 -9.609375 L 5.65625 -9.609375 C 5.800781 -10.878906 6.050781 -11.914062 6.40625 -12.71875 C 6.757812 -13.519531 7.257812 -14.101562 7.90625 -14.46875 C 8.550781 -14.84375 9.347656 -15.03125 10.296875 -15.03125 C 10.484375 -15.03125 10.679688 -15.019531 10.890625 -15 C 11.097656 -14.988281 11.332031 -14.953125 11.59375 -14.890625 L 11.453125 -10.609375 C 11.128906 -10.742188 10.804688 -10.835938 10.484375 -10.890625 C 10.160156 -10.941406 9.859375 -10.96875 9.578125 -10.96875 C 8.867188 -10.96875 8.25 -10.800781 7.71875 -10.46875 C 7.195312 -10.132812 6.78125 -9.648438 6.46875 -9.015625 C 6.164062 -8.378906 5.953125 -7.59375 5.828125 -6.65625 L 5.828125 0 Z M 1.796875 0 "></path></g></g></g><g fill="#ffffff" fill-opacity="1"><g transform="translate(1087.048002, 229.539506)"><g><path d="M 8.625 0.390625 C 7.40625 0.390625 6.320312 0.222656 5.375 -0.109375 C 4.4375 -0.441406 3.640625 -0.929688 2.984375 -1.578125 C 2.335938 -2.222656 1.847656 -3.003906 1.515625 -3.921875 C 1.179688 -4.847656 1.015625 -5.898438 1.015625 -7.078125 C 1.015625 -8.234375 1.175781 -9.300781 1.5 -10.28125 C 1.820312 -11.269531 2.296875 -12.125 2.921875 -12.84375 C 3.546875 -13.5625 4.316406 -14.113281 5.234375 -14.5 C 6.148438 -14.894531 7.1875 -15.09375 8.34375 -15.09375 C 9.476562 -15.09375 10.476562 -14.90625 11.34375 -14.53125 C 12.21875 -14.15625 12.941406 -13.601562 13.515625 -12.875 C 14.097656 -12.144531 14.523438 -11.257812 14.796875 -10.21875 C 15.066406 -9.175781 15.15625 -7.972656 15.0625 -6.609375 L 3.609375 -6.53125 L 3.609375 -8.734375 L 12.6875 -8.8125 L 11.34375 -7.671875 C 11.46875 -8.660156 11.40625 -9.472656 11.15625 -10.109375 C 10.90625 -10.742188 10.53125 -11.207031 10.03125 -11.5 C 9.539062 -11.800781 8.988281 -11.953125 8.375 -11.953125 C 7.664062 -11.953125 7.046875 -11.765625 6.515625 -11.390625 C 5.984375 -11.023438 5.570312 -10.484375 5.28125 -9.765625 C 4.988281 -9.046875 4.84375 -8.179688 4.84375 -7.171875 C 4.84375 -5.578125 5.1875 -4.410156 5.875 -3.671875 C 6.570312 -2.941406 7.488281 -2.578125 8.625 -2.578125 C 9.144531 -2.578125 9.585938 -2.644531 9.953125 -2.78125 C 10.316406 -2.925781 10.613281 -3.109375 10.84375 -3.328125 C 11.082031 -3.554688 11.265625 -3.8125 11.390625 -4.09375 C 11.523438 -4.375 11.628906 -4.660156 11.703125 -4.953125 L 15.234375 -4.234375 C 15.097656 -3.535156 14.867188 -2.90625 14.546875 -2.34375 C 14.222656 -1.789062 13.789062 -1.304688 13.25 -0.890625 C 12.71875 -0.484375 12.066406 -0.171875 11.296875 0.046875 C 10.535156 0.273438 9.644531 0.390625 8.625 0.390625 Z M 8.625 0.390625 "></path></g></g></g><g fill="#ffffff" fill-opacity="1"><g transform="translate(1103.229764, 229.539506)"><g><path d="M 5.265625 0.390625 C 4.441406 0.390625 3.710938 0.234375 3.078125 -0.078125 C 2.441406 -0.398438 1.941406 -0.863281 1.578125 -1.46875 C 1.210938 -2.070312 1.03125 -2.816406 1.03125 -3.703125 C 1.03125 -4.722656 1.257812 -5.53125 1.71875 -6.125 C 2.175781 -6.726562 2.765625 -7.1875 3.484375 -7.5 C 4.203125 -7.820312 4.960938 -8.050781 5.765625 -8.1875 C 6.566406 -8.332031 7.316406 -8.453125 8.015625 -8.546875 C 8.640625 -8.640625 9.148438 -8.734375 9.546875 -8.828125 C 9.941406 -8.929688 10.226562 -9.082031 10.40625 -9.28125 C 10.582031 -9.476562 10.671875 -9.742188 10.671875 -10.078125 C 10.671875 -10.453125 10.582031 -10.78125 10.40625 -11.0625 C 10.238281 -11.34375 9.988281 -11.570312 9.65625 -11.75 C 9.320312 -11.925781 8.882812 -12.015625 8.34375 -12.015625 C 7.820312 -12.015625 7.328125 -11.921875 6.859375 -11.734375 C 6.390625 -11.546875 5.992188 -11.257812 5.671875 -10.875 C 5.347656 -10.488281 5.128906 -10.007812 5.015625 -9.4375 L 1.421875 -10.4375 C 1.628906 -11.238281 1.941406 -11.929688 2.359375 -12.515625 C 2.785156 -13.097656 3.296875 -13.578125 3.890625 -13.953125 C 4.484375 -14.335938 5.15625 -14.625 5.90625 -14.8125 C 6.65625 -15 7.46875 -15.09375 8.34375 -15.09375 C 9.476562 -15.09375 10.445312 -14.953125 11.25 -14.671875 C 12.050781 -14.390625 12.695312 -13.960938 13.1875 -13.390625 C 13.6875 -12.828125 14.050781 -12.140625 14.28125 -11.328125 C 14.519531 -10.515625 14.640625 -9.585938 14.640625 -8.546875 L 14.640625 -6.015625 C 14.640625 -5.378906 14.648438 -4.722656 14.671875 -4.046875 C 14.691406 -3.367188 14.722656 -2.691406 14.765625 -2.015625 C 14.816406 -1.347656 14.867188 -0.675781 14.921875 0 L 11.375 0 C 11.3125 -0.5 11.25 -1.050781 11.1875 -1.65625 C 11.125 -2.269531 11.082031 -2.894531 11.0625 -3.53125 L 10.578125 -3.53125 C 10.316406 -2.820312 9.941406 -2.160156 9.453125 -1.546875 C 8.972656 -0.941406 8.378906 -0.46875 7.671875 -0.125 C 6.960938 0.21875 6.160156 0.390625 5.265625 0.390625 Z M 6.96875 -2.546875 C 7.320312 -2.546875 7.679688 -2.601562 8.046875 -2.71875 C 8.410156 -2.84375 8.765625 -3.023438 9.109375 -3.265625 C 9.453125 -3.515625 9.769531 -3.828125 10.0625 -4.203125 C 10.351562 -4.578125 10.582031 -4.992188 10.75 -5.453125 L 10.703125 -7.671875 L 11.34375 -7.5625 C 11.019531 -7.320312 10.640625 -7.128906 10.203125 -6.984375 C 9.765625 -6.847656 9.304688 -6.738281 8.828125 -6.65625 C 8.359375 -6.582031 7.890625 -6.5 7.421875 -6.40625 C 6.953125 -6.3125 6.53125 -6.191406 6.15625 -6.046875 C 5.78125 -5.898438 5.476562 -5.695312 5.25 -5.4375 C 5.03125 -5.175781 4.921875 -4.820312 4.921875 -4.375 C 4.921875 -3.8125 5.113281 -3.363281 5.5 -3.03125 C 5.882812 -2.707031 6.375 -2.546875 6.96875 -2.546875 Z M 6.96875 -2.546875 "></path></g></g></g><g fill="#ffffff" fill-opacity="1"><g transform="translate(1119.495571, 229.539506)"><g><path d="M 1.796875 0 L 1.796875 -19.96875 L 5.765625 -19.96875 L 5.765625 0 Z M 1.796875 0 "></path></g></g></g><g fill="#ffffff" fill-opacity="1"><g transform="translate(1127.05453, 229.539506)"><g><path d="M 1.796875 0 L 1.796875 -14.703125 L 5.828125 -14.703125 L 5.828125 0 Z M 3.8125 -16.828125 C 3.019531 -16.828125 2.414062 -16.992188 2 -17.328125 C 1.582031 -17.671875 1.375 -18.148438 1.375 -18.765625 C 1.375 -19.421875 1.582031 -19.914062 2 -20.25 C 2.414062 -20.582031 3.019531 -20.75 3.8125 -20.75 C 4.613281 -20.75 5.222656 -20.582031 5.640625 -20.25 C 6.054688 -19.914062 6.265625 -19.421875 6.265625 -18.765625 C 6.265625 -18.148438 6.054688 -17.671875 5.640625 -17.328125 C 5.222656 -16.992188 4.613281 -16.828125 3.8125 -16.828125 Z M 3.8125 -16.828125 "></path></g></g></g><g fill="#ffffff" fill-opacity="1"><g transform="translate(1134.669474, 229.539506)"><g><path d="M 7.28125 0.34375 C 6.476562 0.34375 5.773438 0.238281 5.171875 0.03125 C 4.578125 -0.175781 4.078125 -0.5 3.671875 -0.9375 C 3.273438 -1.375 2.972656 -1.9375 2.765625 -2.625 C 2.566406 -3.320312 2.46875 -4.144531 2.46875 -5.09375 L 2.46875 -11.53125 L 0.359375 -11.53125 L 0.453125 -14.640625 L 1.796875 -14.640625 C 2.410156 -14.660156 2.863281 -14.769531 3.15625 -14.96875 C 3.457031 -15.164062 3.640625 -15.515625 3.703125 -16.015625 L 4.03125 -17.96875 L 6.328125 -17.96875 L 6.328125 -14.703125 L 10.03125 -14.703125 L 10.03125 -11.421875 L 6.328125 -11.421875 L 6.328125 -5.296875 C 6.328125 -4.523438 6.515625 -4.007812 6.890625 -3.75 C 7.265625 -3.488281 7.722656 -3.359375 8.265625 -3.359375 C 8.597656 -3.359375 8.929688 -3.398438 9.265625 -3.484375 C 9.597656 -3.566406 9.890625 -3.6875 10.140625 -3.84375 L 10.140625 -0.078125 C 9.554688 0.0859375 9.019531 0.195312 8.53125 0.25 C 8.050781 0.3125 7.632812 0.34375 7.28125 0.34375 Z M 7.28125 0.34375 "></path></g></g></g><g fill="#ffffff" fill-opacity="1"><g transform="translate(1145.699976, 229.539506)"><g><path d="M 7.34375 5.015625 C 6.59375 5.015625 5.832031 4.945312 5.0625 4.8125 C 4.300781 4.6875 3.578125 4.484375 2.890625 4.203125 C 2.210938 3.921875 1.640625 3.554688 1.171875 3.109375 L 2.296875 -0.390625 C 2.890625 0.242188 3.628906 0.707031 4.515625 1 C 5.410156 1.300781 6.285156 1.453125 7.140625 1.453125 C 8.054688 1.453125 8.804688 1.296875 9.390625 0.984375 C 9.984375 0.679688 10.441406 0.265625 10.765625 -0.265625 C 11.085938 -0.796875 11.320312 -1.410156 11.46875 -2.109375 C 11.625 -2.804688 11.710938 -3.550781 11.734375 -4.34375 L 11.875 -6.640625 L 11.28125 -6.640625 C 11.113281 -5.390625 10.816406 -4.367188 10.390625 -3.578125 C 9.972656 -2.796875 9.441406 -2.222656 8.796875 -1.859375 C 8.160156 -1.492188 7.40625 -1.3125 6.53125 -1.3125 C 5.570312 -1.3125 4.78125 -1.503906 4.15625 -1.890625 C 3.53125 -2.273438 3.050781 -2.769531 2.71875 -3.375 C 2.382812 -3.976562 2.132812 -4.613281 1.96875 -5.28125 C 1.8125 -5.957031 1.71875 -6.59375 1.6875 -7.1875 C 1.664062 -7.789062 1.65625 -8.257812 1.65625 -8.59375 L 1.65625 -14.703125 L 5.6875 -14.703125 L 5.6875 -9.75 C 5.6875 -9.375 5.691406 -8.957031 5.703125 -8.5 C 5.722656 -8.039062 5.765625 -7.585938 5.828125 -7.140625 C 5.898438 -6.691406 6.023438 -6.273438 6.203125 -5.890625 C 6.378906 -5.503906 6.613281 -5.195312 6.90625 -4.96875 C 7.207031 -4.75 7.59375 -4.640625 8.0625 -4.640625 C 8.675781 -4.640625 9.164062 -4.828125 9.53125 -5.203125 C 9.894531 -5.578125 10.179688 -6.046875 10.390625 -6.609375 C 10.597656 -7.171875 10.738281 -7.75 10.8125 -8.34375 C 10.882812 -8.9375 10.929688 -9.453125 10.953125 -9.890625 L 10.953125 -14.703125 L 14.984375 -14.703125 L 14.984375 -4.171875 C 14.984375 -3.648438 14.953125 -3.066406 14.890625 -2.421875 C 14.835938 -1.773438 14.734375 -1.109375 14.578125 -0.421875 C 14.421875 0.265625 14.164062 0.929688 13.8125 1.578125 C 13.46875 2.222656 13.015625 2.804688 12.453125 3.328125 C 11.898438 3.847656 11.203125 4.257812 10.359375 4.5625 C 9.515625 4.863281 8.507812 5.015625 7.34375 5.015625 Z M 7.34375 5.015625 "></path></g></g></g><g mask="url(#2a17b5f7f3)"><g transform="matrix(0.625714, 0, 0, 0.625263, 29.70001, 0)"><image x="0" y="0" width="525" height="475" preserveAspectRatio="xMidYMid meet"></image></g></g><g clip-path="url(#f0b7f4d93b)"><g transform="matrix(0.17926, 0, 0, 0.179443, 399.361337, 21.055297)"><image x="0" y="0" width="4096" height="1024" preserveAspectRatio="xMidYMid meet"></image></g></g></svg>